<svg xmlns="http://www.w3.org/2000/svg"><style>:root svg:not(:target){display:none}</style><svg fill="none" id="arrow" viewBox="0 0 24 12"><path stroke="#000" stroke-width="2" d="M0 6h18"></path><path fill="#000" d="m24 6-6.8 5.2V.8L24 6Z"></path></svg><svg fill="none" id="cat-arrow" viewBox="0 0 24 18"><path fill="#666" d="M8 0 0 9l8 9V0Zm16 9-8-9v18l8-9Z"></path></svg><svg fill="none" id="cat-mass-desktop" viewBox="0 0 134 100"><circle cx="69" cy="50" r="50" fill="#68B738"></circle><g clip-path="url(#cat-mass-desktop_0)"><path fill="#000" d="M123.1 25.8c1.2-1.9 2.7-3.4 4.5-4.6 1-.7 1.6-.7 2.2.6.8 1.9 1.5 3.9 1 6a2.3 2.3 0 0 0 .3 2l1.6 2.4a6.3 6.3 0 0 1 1 6.2c-.4 1-.5 2-.3 3s.2 2 0 3a3.8 3.8 0 0 1-2.7 3.3c-1.3.2-2.4 1-3.2 2a1 1 0 0 1-.9.5c-1.2.2-4.2-2.5-4.2-3.7v-.6c.1-3.6 0-4-3.4-5.4-.7-.3-1.3-.7-1.8-1.2-.6-.8-1.4-.7-2.3-.4-.9.3-1.4.9-1.3 1.9.3 2.4.4 4.8.3 7.3 0 .2 0 .5.2.8 3.1 4.5 4.3 9.8 5.8 14.9 1.2 3.9 3.4 6 7.4 6.3.7 0 1.3.1 2 .3a4.2 4.2 0 0 1 3.3 3.2c.7 2 .3 2.6-1.8 2.6h-6.5c-.8 0-1.6-.3-2.3-.8-1-.9-2.1-1.6-3.4-2a7.3 7.3 0 0 1-3.4-2.6 28.6 28.6 0 0 0-4-4.5c-2.8-3-5.8-5.7-8.4-8.7-2-2-3.1-4.8-3.2-7.6 0-1-.2-1.3-1.2-1a2 2 0 0 1-1 .4c-2.8 0-4.2 1.7-5.2 4.2-.9 2-2 4-3.2 6.2-.6 1.3-1 2.7-1 4.2 0 2.4.6 3.2 2.8 4 1.4.5 2.7 1 3.4 2.4.8 1.6.6 2-1 2h-6.9a1.9 1.9 0 0 1-1.9-1l-1.8-3A6 6 0 0 1 82 63c.5-1.8.5-3.6.1-5.3a8.4 8.4 0 0 1 1.7-7c.6-.7.6-1-.4-1.2a50 50 0 0 1-11.9-4.2c-3.2-1.2-3.8-1-4.7 2.3-.8 2.8-1.6 5.6-2.2 8.5a17 17 0 0 0 1.1 9.2c.4 1.2 1.6 1 2.5 1.4 2 .6 3.7 1.4 4.5 3.5.7 1.6.6 1.8-1 1.8h-5.3c-1.5 0-3-.5-4.2-1.4-4.8-3.2-6.2-8.1-6.6-13.4-.2-3.3-2-6-4-8.4-.5-.5-.9-.7-1.5-.3a44.3 44.3 0 0 1-6.7 3c-4.8 1.7-9 4.7-12.2 8.8-1.2 1.4-2 3.2-2.2 5-.3 1.9.2 2.7 2 3.2s2.7 1.5 3 3.4c0 .8-.3 1.2-1 1.2h-8.2a1.6 1.6 0 0 1-1.3-.8 8.6 8.6 0 0 1-1.9-5.5c0-3.5.3-7 1-10.3a6.3 6.3 0 0 1 3.3-4.8c6-2.8 9-8.1 11.8-13.6.6-1.1.1-1.3-.9-1.2-2.8.3-5.4 1.4-7.7 3.2-3 2.1-5.7 4.5-8.3 7a16.7 16.7 0 0 1-10.3 5C3.1 52.5-.3 48.4 0 41.8c0-2.3 1-4.5 2.4-6.1A4.2 4.2 0 0 1 7 34.2c1.5.4 2 1.2 1.3 2.7l-1 1.7c-.4.6-.8 1.2-1 2-1 3 .4 5 3.5 5.4 3.3.3 6-1.1 8.5-3.1a45 45 0 0 0 8-8.3 20.8 20.8 0 0 1 14.4-8.1c2.3-.3 4.3-1.3 6.5-2 4.1-1.2 8.4-1.8 12.7-1.7 2 0 4-.3 5.8-1.1 5-2 10-2 15.1-1 4 .8 8 1.8 12 2.8 2.2.4 4.6.3 7-.2 4.3-1.2 8.8-1.8 13.3-2 3-.2 6 .4 8.6 1.7 2 .9 2 .9 1.5 2.8Z"></path></g><defs><clipPath id="cat-mass-desktop_0"><path fill="#fff" d="M0 20h134v56H0z"></path></clipPath></defs></svg><svg fill="none" id="cat-mass-mobile" viewBox="0 0 67 50"><circle cx="34" cy="25" r="25" fill="#68B738"></circle><g clip-path="url(#cat-mass-mobile_0)"><path fill="#000" d="M61.6 13.9c.5-1 1.3-1.7 2.2-2.3.5-.4.8-.4 1.1.3.4 1 .8 2 .5 3a1.1 1.1 0 0 0 .2 1l.8 1.2a3.1 3.1 0 0 1 .4 3c-.2.6-.2 1.1 0 1.6v1.5a1.9 1.9 0 0 1-1.4 1.6c-.7.2-1.3.5-1.6 1a.5.5 0 0 1-.5.3c-.6 0-2-1.3-2-1.9V24c0-1.8-.1-2-1.8-2.7-.3 0-.6-.3-.9-.6-.3-.4-.7-.3-1.1-.2-.5.2-.7.5-.7 1 .2 1.2.2 2.4.2 3.6v.4c1.6 2.3 2.2 5 3 7.5.6 2 1.7 3 3.7 3.1l1 .2a2 2 0 0 1 1.6 1.6c.4 1 .2 1.3-.9 1.3h-3.2c-.5 0-.9-.1-1.2-.4-.5-.4-1-.8-1.7-1-.7-.3-1.3-.7-1.7-1.3-.6-.8-1.2-1.6-2-2.3-1.4-1.4-2.9-2.8-4.2-4.3-1-1-1.6-2.4-1.6-3.8 0-.5 0-.7-.6-.5a1 1 0 0 1-.5.2c-1.4 0-2 .8-2.6 2-.4 1.1-1 2.1-1.6 3.2-.3.6-.5 1.4-.5 2 0 1.3.3 1.7 1.4 2 .7.3 1.4.6 1.7 1.3.4.8.3 1-.5 1h-3.4a1 1 0 0 1-1-.5l-.9-1.5a3 3 0 0 1-.3-2.7 6 6 0 0 0 0-2.7 4.2 4.2 0 0 1 .9-3.5c.3-.3.3-.5-.2-.6a25 25 0 0 1-6-2c-1.6-.7-1.9-.6-2.3 1L32.3 29c-.4 1.6 0 3.1.5 4.6.2.6.8.6 1.3.7 1 .3 1.8.7 2.2 1.8.4.8.3.9-.5.9h-2.6c-.8 0-1.5-.3-2.1-.7-2.4-1.6-3.1-4-3.3-6.7-.1-1.7-1-3-2-4.2-.3-.3-.5-.4-.8-.2-1 .6-2.2 1.1-3.3 1.5-2.5.9-4.6 2.4-6.1 4.4-.6.8-1 1.6-1.1 2.6-.2.9 0 1.3 1 1.5.9.3 1.3.8 1.4 1.7 0 .4 0 .6-.5.6h-4a.8.8 0 0 1-.7-.4c-.6-.7-1-1.7-1-2.7 0-1.7.2-3.5.5-5.2a3.2 3.2 0 0 1 1.7-2.4c3-1.4 4.5-4 6-6.8.2-.5 0-.6-.5-.6-1.4.2-2.8.8-3.9 1.6-1.5 1.1-2.9 2.3-4.1 3.6A8.3 8.3 0 0 1 5.2 27c-3.6.2-5.2-1.8-5.2-5 0-1.1.5-2.2 1.2-3a2.1 2.1 0 0 1 2.3-.8c.7.2 1 .6.6 1.3l-.5.9-.5 1c-.5 1.5.2 2.5 1.8 2.7 1.6.1 3-.6 4.2-1.6 1.5-1.2 2.9-2.6 4-4.1a10.4 10.4 0 0 1 7.2-4c1.2-.2 2.2-.7 3.3-1 2-.6 4.2-1 6.3-1 1 .1 2 0 3-.5 2.4-1 5-1 7.5-.5l6 1.4c1 .2 2.3.2 3.4 0 2.2-.6 4.4-1 6.7-1a9 9 0 0 1 4.3.8c1 .4 1 .4.8 1.4Z"></path></g><defs><clipPath id="cat-mass-mobile_0"><path fill="#fff" d="M0 11h67v28H0z"></path></clipPath></defs></svg><svg fill="none" id="cat-mass-tablet" viewBox="0 0 268 200"><circle cx="134" cy="100" r="100" fill="#68B738"></circle><g clip-path="url(#cat-mass-tablet_0)"><path fill="#000" d="M246.2 55.5c2.3-3.7 5.4-6.8 9-9.2 2-1.4 3.2-1.4 4.4 1.2 1.6 3.8 3 7.8 1.8 12a4.6 4.6 0 0 0 .8 4.2l3.2 4.6a12.5 12.5 0 0 1 1.8 12.4c-.7 2-.8 4.2-.4 6.2s.4 4 0 6a7.5 7.5 0 0 1-5.4 6.4c-2.5.5-4.8 2-6.4 4a2 2 0 0 1-1.8 1c-2.4.4-8.4-5-8.4-7.4v-1.2c.2-7.2-.2-7.8-6.8-10.8a8.8 8.8 0 0 1-3.6-2.4c-1.2-1.6-2.8-1.4-4.6-.8-1.8.6-2.8 1.8-2.6 3.8.6 4.9.8 9.7.6 14.6 0 .6.2 1.1.4 1.6 6.2 9 8.6 19.6 11.6 29.8 2.4 7.8 6.8 12 14.8 12.6 1.3.1 2.6.3 3.8.6a8.3 8.3 0 0 1 6.8 6.4c1.4 4.2.6 5.2-3.6 5.2h-13c-1.6.1-3.3-.5-4.6-1.6-2-1.7-4.3-3-6.8-4-2.7-1-5-2.8-6.8-5.2-2.3-3.3-5-6.3-8-9-5.6-5.8-11.6-11.4-16.8-17.4-4-4-6.2-9.5-6.4-15.2 0-1.8-.4-2.6-2.4-1.8-.6.4-1.3.6-2 .6-5.6 0-8.4 3.4-10.4 8.4-1.8 4.2-4.2 8.2-6.4 12.4-1.2 2.6-1.9 5.5-2 8.4 0 4.8 1.2 6.4 5.6 8 2.8 1 5.4 2 6.8 4.8 1.6 3.2 1.2 4-2.2 4.2h-13.6a3.8 3.8 0 0 1-3.8-2.2l-3.6-6a12.1 12.1 0 0 1-1.4-10.8c.9-3.5 1-7 .2-10.6a16.8 16.8 0 0 1 3.4-14c1.2-1.4 1.2-2-.8-2.4a100.2 100.2 0 0 1-23.8-8.4c-6.4-2.4-7.6-2-9.4 4.6-1.6 5.6-3.2 11.2-4.4 17a34 34 0 0 0 2.2 18.4c.8 2.4 3.2 2.2 5 2.8 4 1.2 7.4 2.8 9 7 1.4 3.2 1.2 3.6-2.2 3.6-3.4 0-6.8-.2-10.4 0-3 0-6-1-8.4-2.8-9.6-6.4-12.4-16.2-13.2-26.8-.4-6.6-4-11.8-8.2-16.8-.8-1-1.6-1.4-2.8-.6a88.6 88.6 0 0 1-13.4 6 53.4 53.4 0 0 0-24.4 17.6c-2.3 3-3.8 6.5-4.4 10.2-.6 3.6.4 5.2 4 6.2s5.4 3 5.8 6.8c.2 1.6-.4 2.4-2 2.4H49.4a3.3 3.3 0 0 1-2.6-1.6c-2.5-3.1-3.8-7-3.8-11 0-6.9.5-13.8 1.8-20.6a12.6 12.6 0 0 1 6.8-9.6c11.8-5.6 18-16.2 23.6-27.2 1.2-2.2.2-2.6-1.8-2.4A33 33 0 0 0 58 84.1c-5.9 4.3-11.4 9-16.6 14.2-5.5 5.6-12.8 9-20.6 9.8C6.2 109-.6 100.7 0 87.5c.2-4.5 2-8.8 4.8-12.2a8.5 8.5 0 0 1 9-3c3 .8 3.8 2.4 2.6 5.4l-2 3.4a15 15 0 0 0-2 4c-2.2 6 .8 10.2 7 10.8 6.6.6 12-2.2 17-6.2 6-4.8 11.4-10.4 16-16.6A41.6 41.6 0 0 1 81.2 57c4.6-.6 8.6-2.6 13-3.8a83 83 0 0 1 25.4-3.6c4 .2 8-.6 11.6-2.2 9.8-4 20-4 30.2-2 8 1.6 16 3.6 23.8 5.6 4.7.9 9.5.7 14-.4 8.8-2.2 17.8-3.6 26.8-4 6-.3 11.9.9 17.2 3.4 4 1.8 4 1.8 3 5.6Z"></path></g><defs><clipPath id="cat-mass-tablet_0"><path fill="#fff" d="M0 44h268v112H0z"></path></clipPath></defs></svg><svg fill="none" id="cat-weigh-mobile" viewBox="0 0 50 53"><circle cx="25" cy="28" r="25" fill="#68B738"></circle><g clip-path="url(#cat-weigh-mobile_0)"><path fill="#000" d="M35.2 0H35c-.3.2-.6.5-.7.8a8 8 0 0 0-.7 1.8.8.8 0 0 1-.8.7 3.8 3.8 0 0 0-2.7 2 14 14 0 0 0-1 2L27.3 13c-.3 1-.3 1-1.3 1-1.2 0-1-.3-1.1 1 0 .4.1.6.5.6l.4.1c0 .2 0 .3-.2.4-.6.6-1.4 1-2.2 1.2l-3 .8c-2.4.8-4.6 2-6.4 4-1 1.1-1.9 2.5-2.4 4A56.6 56.6 0 0 0 7.9 40a97 97 0 0 0-.7 6.7L7 50h17.1v-.7a2.6 2.6 0 0 0-2-1.5c-.4-.1-.4-.2-.2-.5l.8-1.6c.8-2.5 1.2-5 1.6-7.6.2-2 .8-3.9 1.7-5.6.8-1.3 1.7-2.4 2.9-3.3.4-.3.4-.3.5.2l.1 1.1c.2 2.5.1 5 0 7.3a31.9 31.9 0 0 0 1 12.2h6.8a2.8 2.8 0 0 0-2.1-2.3l-2 .1c-.3 0-.4 0-.4-.3-.2-2.7 0-5.5.5-8.2.7-3 1.2-6.2 1.6-9.3 0-1.3.5-2.5 1.1-3.7l1.8-3.3a3 3 0 0 0 .2-2.7l-.5-1-1.5-3c-.2-.6-.1-.6.4-.7.9 0 .9 0 .9-.8v-.3c0-.4-.2-.6-.5-.6H36c-.4 0-.5-.1-.4-.5a3.2 3.2 0 0 1 2.6-2.3c1.2 0 2.3 0 3.4.3a.5.5 0 0 0 .7-.4 40 40 0 0 1 .7-1.8l-.1-.3a18.3 18.3 0 0 0-6.2-5.5l-.1-.4-.7-2.1c-.1-.4-.4-.7-.7-.9Z"></path></g><defs><clipPath id="cat-weigh-mobile_0"><path fill="#fff" d="M7 0h36v50H7z"></path></clipPath></defs></svg><svg fill="none" id="cat-weight-desktop" viewBox="0 0 100 106"><circle cx="50" cy="56" r="50" fill="#68B738"></circle><g clip-path="url(#cat-weight-desktop_0)"><path fill="#000" d="M69.8 0h-.3c-.7.4-1.2 1-1.5 1.6-.6 1-1 2.2-1.3 3.4a1.6 1.6 0 0 1-1.5 1.3 7.3 7.3 0 0 0-5.2 3.8l-1.9 4c-1.4 3.7-2.5 7.5-3.8 11.2-.6 1.7-.7 1.7-2.6 1.7-2.2 0-2-.4-2.1 2.1 0 .8.2 1.2 1 1.2.3 0 .7-.1.8.2.1.4-.2.5-.4.7a9 9 0 0 1-4.3 2.4L41 35.2a28.6 28.6 0 0 0-12.6 7.5 28 28 0 0 0-4.7 7.9c-3.7 8.6-5.5 17.7-6.9 27-.6 4.2-1 8.6-1.4 13-.2 2-.4 4.2-.4 6.4h33.3c0-.4 0-.9-.2-1.3a5 5 0 0 0-3.8-3c-.7-.2-.8-.4-.4-1 .7-1 1.3-2 1.6-3 1.6-4.9 2.3-9.9 3-14.9A30 30 0 0 1 52 63c1.4-2.5 3.3-4.6 5.6-6.4.8-.6.9-.6 1 .5l.2 2.1c.3 4.8.2 9.5-.2 14.2A61.7 61.7 0 0 0 60.7 97H74a5.4 5.4 0 0 0-4.2-4.4 9 9 0 0 0-3.8.2c-.6.1-.8 0-.9-.7-.4-5.3 0-10.6 1-15.8 1.3-6 2.4-12 3-18.2.3-2.5 1.1-4.8 2.3-7l3.4-6.4a5.9 5.9 0 0 0 .5-5.2l-.9-2.1-3-5.9c-.4-1-.3-1.1.8-1.1 1.6 0 1.6 0 1.6-1.7v-.6c0-.7-.2-1.1-1-1h-1.5c-.7 0-.9-.3-.7-1a6.2 6.2 0 0 1 5.1-4.5 22 22 0 0 1 6.7.5 1 1 0 0 0 1.2-.7 77.4 77.4 0 0 1 1.4-3.6A35.6 35.6 0 0 0 72.8 6.5l-.3-.6c-.2-1.4-.7-2.8-1.3-4.2C71 1 70.5.4 69.8 0Z"></path></g><defs><clipPath id="cat-weight-desktop_0"><path fill="#fff" d="M15 0h70v97H15z"></path></clipPath></defs></svg><svg fill="none" id="cat-weight-tablet" viewBox="0 0 200 211"><circle cx="100" cy="111" r="100" fill="#68B738"></circle><g clip-path="url(#cat-weight-tablet_0)"><path fill="#000" d="M139.7 0h-.8a7 7 0 0 0-2.9 3.2 31 31 0 0 0-2.6 6.8 3.3 3.3 0 0 1-3 2.7 14.7 14.7 0 0 0-10.4 7.5 54.6 54.6 0 0 0-3.7 8c-2.8 7.4-5 15-7.7 22.4-1.3 3.4-1.3 3.4-5.1 3.4-4.6 0-4.2-.7-4.3 4.3 0 1.6.5 2.4 2.2 2.3.5 0 1.3-.3 1.5.4.2.7-.5 1-1 1.4a18 18 0 0 1-8.6 4.9c-3.8 1-7.7 1.8-11.4 3a57.3 57.3 0 0 0-25 15.2 56 56 0 0 0-9.6 15.7A219.4 219.4 0 0 0 33.7 155c-1.3 8.6-2.2 17.3-3 26-.3 4.3-.7 8.6-.7 13h66.7c0-.9 0-1.8-.5-2.6a10 10 0 0 0-7.7-6.1c-1.4-.3-1.5-.7-.7-1.8 1.4-2 2.5-4 3.2-6.2 3.3-9.7 4.5-19.7 6.1-29.6A60 60 0 0 1 104 126c2.8-5 6.6-9.3 11.2-12.7 1.6-1.3 1.7-1.3 2 .8l.3 4.4c.6 9.4.5 18.9-.3 28.3a123.3 123.3 0 0 0 4.2 47.2H148a10.8 10.8 0 0 0-8.5-8.9 18 18 0 0 0-7.5.4c-1.2.3-1.7 0-1.8-1.3-.8-10.6-.2-21.2 2-31.6 2.7-12 4.7-24.2 6.1-36.4.5-5 2.1-9.7 4.6-14 2.4-4.2 4.4-8.6 6.8-12.9a11.7 11.7 0 0 0 .8-10.4c-.5-1.4-1-2.8-1.7-4.2-2-3.9-4-7.7-5.8-11.7-1-2-.8-2.2 1.4-2.3 3.2 0 3.2 0 3.3-3.3v-1.3c0-1.4-.5-2.1-2-2h-3c-1.4 0-1.8-.6-1.5-2a12.5 12.5 0 0 1 10.3-8.8 44 44 0 0 1 13.2.8 2 2 0 0 0 2.5-1.3l2.6-6a2 2 0 0 0-.2-2.2 71.1 71.1 0 0 0-24-21.5 3 3 0 0 1-.6-1.3c-.5-2.9-1.3-5.7-2.5-8.4a7 7 0 0 0-2.8-3.4Z"></path></g><defs><clipPath id="cat-weight-tablet_0"><path fill="#fff" d="M30 0h140v194H30z"></path></clipPath></defs></svg><svg fill="none" id="check-green" viewBox="0 0 19 15"><path fill="#68B738" d="M7 11.7 1.3 5.3l-1 1.2L7 14 18.3 1.4 17.1 0 7 11.7Z"></path></svg><svg fill="none" id="food" viewBox="0 0 25 30"><path fill="#fff" fill-rule="evenodd" d="M18.6 0c.4 0 .8 0 1.1.3 1 .9 2.1 2.9 3 6 1 3 1.8 7.2 1.8 12.7 0 .6-.4 1-1 1H20v9a1 1 0 1 1-2 0V1c0-.4.2-.8.6-1ZM20 18h2.5A39.6 39.6 0 0 0 20 4.5V18ZM6 0c.6 0 1 .4 1 1v28a1 1 0 1 1-2 0V1c0-.6.4-1 1-1Z" clip-rule="evenodd"></path><path fill="#fff" fill-rule="evenodd" d="M1.5 0c.6 0 1 .4 1 1v5.5c0 .6.2 1.3.7 2 .5.5 1.3 1 2.8 1a1 1 0 1 1 0 2c-2 0-3.4-.7-4.3-1.8A5 5 0 0 1 .5 6.5V1c0-.6.4-1 1-1Z" clip-rule="evenodd"></path><path fill="#fff" fill-rule="evenodd" d="M10.5 0a1 1 0 0 0-1 1v5.5a3 3 0 0 1-.7 2c-.5.5-1.3 1-2.8 1a1 1 0 0 0 0 2c2 0 3.4-.7 4.3-1.8a5 5 0 0 0 1.2-3.2V1c0-.6-.4-1-1-1Z" clip-rule="evenodd"></path></svg><svg fill="none" id="footer-logo-tablet" viewBox="0 0 143 27"><path fill="#111" d="M1.8 24.4c-1.3-1.8-2-4-1.8-6.2V8.9c-.2-2.2.4-4.5 1.7-6.3C2.9 1 4.8.4 7.6.4c2.8 0 4.6.7 5.7 2A8 8 0 0 1 15 7.7V10H9.5V7.5c0-.8 0-1.5-.3-2.3a1.6 1.6 0 0 0-1.6-.9c-.8 0-1.3.3-1.6.8-.2.8-.3 1.7-.3 2.5v12c0 .7 0 1.5.4 2.3.3.5.8.8 1.6.8s1.2-.3 1.5-.8l.3-2.4v-2.7H15v2.3c0 2-.5 4-1.7 5.6-1.1 1.3-3 2-5.7 2-2.7-.1-4.7-.8-5.8-2.3ZM21.6.8h6.3l4.7 25.4h-5.1l-1-5.3H23l-.9 5.3h-5.2L21.6.8ZM26 17.5l-1.3-10-1.3 10H26ZM36.5 5h-3.8V.8H46v4.1h-3.8v21.3h-5.7V5ZM56.2.8H66v2.7h-6.3v8.3h5.1v2.6h-5.1v9.4H66v2.5H56V.8h.2ZM69 .8h2.4l7.3 16.8V.8h2.9v25.4h-2.3L72 8.8v17.4h-3V.8Zm16 0h9.8v2.7h-6.4v8.3h5.1v2.6h-5.1v9.4h6.4v2.5h-9.9V.8Zm12.7 0h5.1c2-.2 4 .4 5.7 1.5 1.2 1 1.8 2.8 1.8 5.2 0 3.2-1 5.2-3.1 5.9l3.5 12.7h-3.4l-3.4-12h-2.8v12h-3.6V.8h.2Zm4.9 11c1.1 0 2.3-.3 3.2-1 .7-.5 1-1.7 1-3.3 0-.9 0-1.7-.3-2.5-.3-.6-.7-1-1.2-1.3-.8-.4-1.7-.5-2.5-.5h-1.6v8.4h1.4v.1Zm12.2 12.5c-1.2-2-1.8-4.2-1.6-6.4V9.4c0-1.6.1-3.3.5-4.8a5.7 5.7 0 0 1 2.2-3c1.2-.7 2.7-1 4.1-1 2.4 0 4 .6 5 1.9a8.5 8.5 0 0 1 1.6 5.5v1h-3.4V8c0-.9 0-1.8-.2-2.7 0-.6-.4-1.2-.9-1.5-.6-.4-1.3-.6-2-.6-.9 0-1.7.2-2.3.7a2.5 2.5 0 0 0-1 1.8l-.1 3v9.5c-.1 1.4.1 2.9.6 4.2.5 1 1.4 1.3 2.7 1.3a2.7 2.7 0 0 0 2.7-1.4c.6-1.4.8-3 .8-4.4v-1.8h-3.3v-2.6h6.5v12.6h-2.2l-.4-2.9a4.6 4.6 0 0 1-4.5 3.3 5.6 5.6 0 0 1-4.8-2.3Zm19.1-7L128.4.9h3.3l4 12.3L139.3.9h3.4l-5.5 16.4v9H134v-9h-.1Z"></path></svg><svg fill="none" id="footer-logo" viewBox="0 0 129 24"><path d="M2.103 22.051A9.498 9.498 0 0 1 .5 16.308V7.795a9.63 9.63 0 0 1 1.502-5.846C3.104.615 4.807 0 7.311 0s4.106.615 5.108 1.744a7.487 7.487 0 0 1 1.502 5.025v2.052H9.013V6.46a5.157 5.157 0 0 0-.3-2.05 1.463 1.463 0 0 0-.579-.63 1.415 1.415 0 0 0-.823-.191c-.701 0-1.202.205-1.403.718a6.774 6.774 0 0 0-.3 2.256v10.974a4.334 4.334 0 0 0 .4 2.154c.2.513.702.718 1.403.718.7 0 1.102-.205 1.302-.718.228-.693.33-1.423.3-2.154v-2.461h4.908v2.051a7.98 7.98 0 0 1-1.502 5.128c-1.002 1.231-2.705 1.847-5.108 1.847-2.404-.103-4.207-.718-5.208-2.052ZM19.83.308h5.71l4.206 23.384h-4.607l-.802-4.923h-3.305l-.801 4.923h-4.708L19.83.308Zm4.107 15.384-1.202-9.128-1.202 9.128h2.404ZM33.251 4.205h-3.405V.308h11.918v3.794H38.36v19.59h-5.108V4.205ZM50.879.308h8.814v2.461h-5.71v7.692h4.608v2.36h-4.607v8.615h5.709v2.359h-8.914V.308h.1ZM62.297.308H64.5l6.51 15.487V.308h2.604v23.384h-2.003l-6.61-16v16h-2.704V.308ZM76.619.308h8.814v2.461h-5.71v7.692h4.608v2.36h-4.607v8.615h5.709v2.359h-8.814V.308ZM88.037.308h4.607a7.873 7.873 0 0 1 5.108 1.436c1.102.923 1.602 2.564 1.602 4.717 0 2.975-.901 4.821-2.804 5.436l3.205 11.693H96.65l-3.005-10.975h-2.503V23.59h-3.205V.308h.1Zm4.407 10.05a4.302 4.302 0 0 0 2.904-.82c.601-.512.902-1.538.902-3.077a6.772 6.772 0 0 0-.3-2.256 2.583 2.583 0 0 0-1.103-1.23 4.473 4.473 0 0 0-2.203-.411h-1.402v7.692h1.202v.103ZM103.361 21.949a10.566 10.566 0 0 1-1.402-5.95V8.206c-.025-1.486.143-2.97.5-4.41a5.204 5.204 0 0 1 1.903-2.667 6.421 6.421 0 0 1 3.706-.923c2.103 0 3.606.513 4.507 1.641a7.982 7.982 0 0 1 1.402 5.128v.82h-3.004v-.717a15.503 15.503 0 0 0-.201-2.564 2.056 2.056 0 0 0-.801-1.334 3.04 3.04 0 0 0-1.903-.512 2.955 2.955 0 0 0-2.003.615 2.349 2.349 0 0 0-.801 1.641 19.734 19.734 0 0 0-.201 2.77v8.717a9.527 9.527 0 0 0 .601 3.898c.401.82 1.202 1.128 2.404 1.128.475.06.956-.024 1.384-.243a2.45 2.45 0 0 0 1.02-.988 9.635 9.635 0 0 0 .701-4.102V14.46h-2.905v-2.359h5.809v11.59h-2.003l-.3-2.666a4.18 4.18 0 0 1-1.554 2.21 4.016 4.016 0 0 1-2.553.764 4.907 4.907 0 0 1-2.406-.47 5.037 5.037 0 0 1-1.9-1.581ZM120.487 15.487 115.58.41h3.004l3.506 11.282L125.495.41h3.005l-4.908 15.077v8.205h-3.004v-8.205h-.101Z" fill="#111"></path></svg><svg viewBox="0 0 60 60" id="htmlacademy"><path fill="#2E368F" d="M30.2 5H30L10.3 7.1v36.2L30 55l19.7-11.7V7.1L30.2 5zm17 36.8L30 52 12.8 41.8V27l17.1 10.2V39l-11.7-7v1.8L30 40.9v1.9l-11.8-7v1.8l11.8 7 11.9-7.1v-7.6l5.3-3.2v15.1zm-.1-17-4.7 2.8-2.2 1.3-10.3-6.1v1.8l8.8 5.3h-.1l-.2.1-1.3.7-7.3-4.3v1.8l5.8 3.4-1.4.9-4.3-2.6v1.8l2.9 1.7-2.9 1.7-17-10.1 17-10.2 17.2 10zm.1-1.8L29.9 12.8 12.8 23V9.4L30 7.6l17.2 1.8V23z"></path></svg><svg fill="none" id="logo-desktop" viewBox="0 0 202 59"><g clip-path="url(#logo-desktop_0)"><path fill="#FDC305" d="M59.9 23.8A25.4 25.4 0 0 0 39.6 8.4 25.8 25.8 0 0 0 16 18a25.3 25.3 0 0 0 16.5 40.7c-.6-2-1.2-4.3-1.7-6.8 1.5 1 3.1 1.8 4.8 2.6l.3 4.5c1.7 0 3.5-.1 5.3-.5v-.7c.3-1.9 1-5.2 1.2-7.4 1.2-1 2.2-2.3 3-3.7l-.1.5c-.6 4.2-1.7 8.7-2.4 10l-.8 1.1a25.7 25.7 0 0 0 19.7-23.7c.2-3.7-.5-7.4-2-10.8Zm-1.5 3.8c-.4.4-1.3.7-1.5-.6a34 34 0 0 1-.2-2.2s-2-3.4-2.6-3.4c-.7 0-5.9 3.4-7.2 5-1.2 1.2-1.4 1.1-1.4 3.4 0 1.7.2 8 0 13l-8 2.1c-2.6.7-5.2 1.3-7.9 1.7l-1-5.8h-.1l-2.6-13s-3.8-1.5-5.2-1.8a3.8 3.8 0 0 0-4 .6 5 5 0 0 0-1.7 3.8l.5 1.4c0 .5-1.2.5-2 .5s-1-1.5-.3-3.1a22.5 22.5 0 0 1 3.9-6.6s.1-.4 1.2-.3l7.3.5v-2.3A144 144 0 0 1 46 19.2V21c2.6-1.2 5.3-1.8 8.1-2a1 1 0 0 1 .8.4l2.7 3.4 1.8 3-.9 1.8Z"></path><path fill="#F06351" d="m56.5 21.5 1 1.3 1.8 3c-.2.6-.5 1.2-.9 1.7-.4.4-1.3.7-1.5-.6l-.2-2.1s-2-3.4-2.6-3.4c-.7 0-5.9 3.4-7.2 5-1.2 1.2-1.4 1.1-1.4 3.4 0 1.4.2 6.6.1 11.1 1.8.2 4.5.7 5.3 1.9 0 0-.3-7.2 7.8-3.4 0 0 .3-9.7 11.5-7.3-3.8-4.4-8.5-8-13.7-10.6ZM46 19.2c0-5.5-.5-11-1.5-16.4 0 0-.1-1.3-.8-.2a14 14 0 0 0-1.2 4c-4.3-.3-8.6-.2-12.9.3-.8-2.8-2.2-4-2.8-3.7-.7.4-.8 3.3-.8 3.3l-.3 14a144 144 0 0 1 20.2-1.3Z"></path><path fill="#E55645" d="m45.4 46.7.2-4-8.2 2.2c-2.5.7-5.1 1.3-7.8 1.7l1.2 5v.3c1.5 1 3.1 1.8 4.8 2.5 2.4-1.1 4.7-2.5 6.9-4 1.1-1 2-2.3 2.9-3.7Z"></path><path fill="#000" d="m32 16 1.4 1c.4.2.6.4.6.6 0 .2-.2.3-.6.3-.4 0-1 0-1-.2s.6 0 1 0h.2A8 8 0 0 1 32 16Zm7.5.2-1 1.3c-.2 0-.3.4.1.3l1.2-.3c.1 0 0-.2-.1-.1h-1l.9-1.2s0-.1-.1 0Zm-3.1 6.1c.4-.2.8-.6 1-1 .3-.7 0-1-.4-1-.6-.1-1.2 0-1.7.3-.4.4-.4.7 0 1l1 .7Z"></path><path fill="#F06351" d="M36 23.5a2 2 0 0 1-.5.6c-.2.2-.6.4-1 .4-.5 0-1-.1-1.5-.5a2 2 0 0 1-.5-.4 1 1 0 0 0-.4-.3s.8 4.1 2.6 4.8c1.8.6 2.1-.8 2.2-1.1 0-1.2-.2-2.3-.8-3.3 0-.3 0 0-.1-.2Z"></path><path fill="#000" d="M34.3 24.6a3.5 3.5 0 0 1-2.3-1.4.1.1 0 0 1 0-.2.1.1 0 0 1 .1 0 3.2 3.2 0 0 0 2.2 1.3 2.1 2.1 0 0 0 1.6-1l.1-.2.1.3s.4.7 1 .8c.7 0 1.1-.5 1.7-1.3a.1.1 0 0 1 .2 0 .1.1 0 0 1 0 .1c-.7 1-1.3 1.5-1.9 1.4a1.6 1.6 0 0 1-1.1-.7 2.3 2.3 0 0 1-1.7 1Z"></path><path fill="#FDC305" d="M36.3 38c2 0 3.7-1.7 3.7-3.7s-1.7-3.7-3.7-3.7c-2.1 0-3.8 1.6-3.8 3.7 0 2 1.7 3.7 3.8 3.7Z"></path><path fill="#111" d="m41.2 31.2-3.1 1.3 1.2-5.5-7.5 9.6 3-1.3-1 5.6 7.4-9.7ZM33.8 35l4.2-5.3-.8 4 2-.9-4.2 5.4.8-4-2 .8Zm-1.4-1.4c.7 0 1.2-.5 1.2-1.1 0-.6-.5-1.1-1.2-1.1-.6 0-1 .5-1 1 0 .7.4 1.2 1 1.2Zm6.6 4c.4 0 .8-.3.8-.8 0-.4-.4-.8-.8-.8-.5 0-.8.4-.8.8 0 .5.3.8.8.8Zm1-2.1c.1 0 .3-.2.3-.4s-.2-.3-.4-.3-.3.1-.3.3c0 .2.1.4.3.4Z"></path><path fill="#F06351" d="M45.9 21a57.2 57.2 0 0 0-5.1 5.2 31.8 31.8 0 0 1-5.3 4.8c-.2-.5-1.6-1.5-1.6-1.5s-3.2-2.1-5.2-3.8l-3.2-3h-2c2.9 4.1 7.1 7.2 12 8.7.9-.2 3.3-1.9 5.1-3.3 2.1-1.8 4.1-3.7 6-5.8.5-.6.9-1.3 1.1-2L46 21Z"></path><path fill="#FDC305" d="m65.2 3.5-8.4 9.3-1.3-2L63.7 0l1.5 3.5Zm-2.5 13.6 5.5-4-.8-3.8-5.4 4.8.7 3ZM60 49l6 3.1 3-2.3-6.6-2.7-2.5 1.9ZM2 6l3-3.4 9.3 9-1.2 2.2L1.9 5.9Zm5.4 10.1-4.7-3-2.4 3.8 5.1 2.4 2-3.2Zm6.6 36-4.6 3.3 2.8 3.6 4-4-2.3-2.9Z"></path><path fill="#F06351" d="M26 27.8s-4-1.5-5.4-1.8a3.8 3.8 0 0 0-4 .6 5 5 0 0 0-1.7 3.8l.5 1.4c0 .5-1.2.5-2 .5s-1-1.5-.3-3.1c.5-1.3 1-2.6 1.8-3.7-5.4 2.8-15 9.3-15 9.3 2.7-.2 5.5-.1 8.2.2 5.2.5 5 4.6 5 4.6a39 39 0 0 1 5.6-1c2.1-.2 2.3 2 2.3 2l.5 3.9c.8-.9 1.7-1.7 2.7-2.4a6 6 0 0 1 4.4-1.3l-2.8-13Z"></path><path fill="#111" d="M85.7 41.7a8.2 8.2 0 0 1-1.4-5.2v-7.4c-.2-1.9.3-3.7 1.3-5.2 1-1.2 2.6-1.8 4.8-1.8 2.2 0 3.8.5 4.5 1.6 1 1.2 1.5 2.8 1.4 4.4V30H92v-2l-.1-1.4c0-.4-.2-.7-.5-1a1.6 1.6 0 0 0-1.1-.3 1.5 1.5 0 0 0-1.5.7c-.3.7-.4 1.5-.4 2.2v9.4c0 .8.1 1.5.4 2.2a1.5 1.5 0 0 0 1.5.8 1.4 1.4 0 0 0 1.4-.8c.2-.7.3-1.4.3-2.2v-2h4.1v1.8c.2 1.6-.3 3.2-1.2 4.5-.9 1.1-2.4 1.7-4.6 1.7-2.1 0-3.8-.6-4.7-1.8ZM102 22.4h4.7l4 20.8h-4l-.7-4.6h-3.3l-.8 4.6h-4l4-20.8Zm3.6 13.6-1.3-8.4-1.2 8.4h2.5Zm8.1-10.5h-3.2v-3.1h10.7v3.1H118v17.7h-4.3V25.5Z"></path><path fill="#444" d="M129.6 22.4h8.1v2.2h-5.2v6.8h4.3v2h-4.3v7.7h5.3v2.1h-8.2V22.4Zm10.6 0h2l6 13.8V22.4h2.4v20.8h-1.9l-6-14.2v14.2h-2.5V22.4Zm13.6 0h8.1v2.2h-5.2v6.8h4.3v2h-4.2v7.7h5.2v2.1h-8.2V22.4Zm10.6 0h4.2a7 7 0 0 1 4.6 1.3c1 .9 1.5 2.3 1.5 4.2 0 2.7-.8 4.3-2.6 4.9l3 10.4h-2.8l-2.7-9.8h-2.3v9.8h-3V22.4Zm4 9c1 0 1.9-.3 2.7-.8a3.5 3.5 0 0 0 .8-2.7c0-.7-.1-1.4-.3-2a1.9 1.9 0 0 0-1-1c-.7-.3-1.4-.5-2-.4h-1.4v6.9h1.2Zm10.3 10.3a9.1 9.1 0 0 1-1.3-5.3v-7c0-1.3.1-2.7.5-4 .3-1 1-1.8 1.7-2.3a6 6 0 0 1 3.4-.9 5.3 5.3 0 0 1 4.2 1.5c1 1.3 1.4 3 1.3 4.6v.8h-2.8v-.7c0-.8 0-1.5-.2-2.3 0-.5-.3-1-.7-1.2a3 3 0 0 0-1.7-.4c-.7 0-1.3.1-1.9.5-.4.4-.6 1-.7 1.5l-.2 2.5v7.7c0 1.2.1 2.4.6 3.4a2.8 2.8 0 0 0 3.5.8c.4-.2.7-.5 1-.9a8 8 0 0 0 .6-3.6V35h-2.7v-2.1h5.3v10.3h-1.8l-.3-2.4a3.7 3.7 0 0 1-3.7 2.7 4.7 4.7 0 0 1-4.1-1.8Zm16-5.8-4.5-13.5h2.7l3.2 10 3.2-10h2.7l-4.5 13.5v7.3h-2.8v-7.3Z"></path></g><defs><clipPath id="logo-desktop_0"><path fill="#fff" d="M0 0h202v59H0z"></path></clipPath></defs></svg><svg fill="none" id="logo-html" viewBox="0 0 27 34"><g clip-path="url(#logo-html_0)"><path fill="#666" d="M13.6 0h-.1L0 1.4V26l13.5 8L27 26V1.4L13.6 0Zm11.6 25-11.7 7-11.7-7V15l11.7 6.8v1.3l-8-4.7v1.2l8 4.8v1.3l-8-4.8v1.2l8 4.9 8.1-4.9V17l3.6-2.1V25Zm0-11.5L22 15.3l-1.5 1-7-4.3v1.2l6 3.6-.2.1-.8.5-5-3v1.3l3.9 2.3-1 .6-3-1.7v1.2l2 1.2-2 1.1-11.6-6.8 11.6-7 11.8 6.9Zm0-1.3L13.4 5.3l-11.6 7V3l11.7-1.2L25.2 3v9.2Z"></path></g><defs><clipPath id="logo-html_0"><path fill="#fff" d="M0 0h27v34H0z"></path></clipPath></defs></svg><svg fill="none" id="logo-mobile" viewBox="0 0 191 38"><g clip-path="url(#logo-mobile_0)"><path d="M6.07 20.72v-2.26a143.265 143.265 0 0 1 20.17-1.33c0 .6 0 1.21-.06 1.82a25.518 25.518 0 0 1 6-1.82A16.67 16.67 0 0 0 .19 20.39l5.88.33ZM27.24 24.23c-1.16 1.28-1.39 1.2-1.39 3.45v9.18A16.64 16.64 0 0 0 33.32 23a17.302 17.302 0 0 0-.32-3.1 33.113 33.113 0 0 0-5.76 4.33ZM6.36 25.72s-3.79-1.44-5.19-1.83A8.541 8.541 0 0 0 0 23.61a16.65 16.65 0 0 0 8.68 14L6.36 25.72Z" fill="#FDC305"></path><path d="M26.29 17.12A89.799 89.799 0 0 0 24.89.65S24.75-.64 24 .41a14.22 14.22 0 0 0-1.2 3.94 70.34 70.34 0 0 0-12.77.34C9.24 2 7.85.75 7.18 1c-.67.25-.72 3.31-.72 3.31l-.33 14.1a143.211 143.211 0 0 1 20.16-1.29Z" fill="#F06351"></path><path d="M12.41 14c0-.09 1 .68 1.41.92.41.24.61.42.61.59 0 .17-.27.34-.63.34s-.91-.12-1-.27h1.23A8.34 8.34 0 0 1 12.41 14ZM19.89 14.11l-1.09 1.33c0 .06-.17.35.18.3a7.351 7.351 0 0 0 1.22-.29c.11 0 .07-.19-.11-.17-.18.02-.69.05-1 .11l.84-1.26s.07-.13-.04-.02ZM16.75 20.2a2.3 2.3 0 0 0 1.09-1c.28-.65 0-.91-.44-1a2.43 2.43 0 0 0-1.74.34c-.39.36-.34.72-.05 1a5.34 5.34 0 0 0 1.14.66Z" fill="#000"></path><path d="M16.35 21.45a1.92 1.92 0 0 1-.46.6 1.73 1.73 0 0 1-1 .38 2.15 2.15 0 0 1-1.47-.43 2.3 2.3 0 0 1-.53-.44c-.1-.11-.223-.2-.36-.26 0 0 .75 4.1 2.57 4.75 1.82.65 2.14-.75 2.2-1.13a5.61 5.61 0 0 0-.82-3.23c-.02-.31-.03-.11-.13-.24Z" fill="#F06351"></path><path d="M14.71 22.59a3.44 3.44 0 0 1-2.361-1.466.14.14 0 0 1 .031-.154.14.14 0 0 1 .2 0 3.26 3.26 0 0 0 2.11 1.3 2.09 2.09 0 0 0 1.63-1l.14-.19.1.21s.37.76 1 .8c.63.04 1.05-.41 1.61-1.28a.14.14 0 0 1 .2 0 .15.15 0 0 1 .05.2c-.64 1-1.27 1.44-1.88 1.4a1.549 1.549 0 0 1-1.12-.76 2.26 2.26 0 0 1-1.71.94Z" fill="#000"></path><path d="M26.24 18.92a58.634 58.634 0 0 0-5.07 5.19A31.629 31.629 0 0 1 15.88 29c-.22-.53-1.62-1.51-1.62-1.51s-3.13-2.14-5.18-3.82a34.139 34.139 0 0 1-3.13-3l-2-.11a22.57 22.57 0 0 0 12 8.8c.86-.14 3.27-1.86 5.07-3.26a58.13 58.13 0 0 0 5.94-5.89 6.15 6.15 0 0 0 1.14-2c-1.1.39-1.86.71-1.86.71Z" fill="#F06351"></path></g><g clip-path="url(#logo-mobile_1)" fill="#111"><path d="M91.264 29.538A6.865 6.865 0 0 1 90 25.231v-6.385a6.95 6.95 0 0 1 1.186-4.385c.869-1 2.212-1.461 4.188-1.461 1.976 0 3.24.461 4.03 1.308a5.418 5.418 0 0 1 1.186 3.769v1.538h-3.873v-1.769a3.691 3.691 0 0 0-.237-1.538 1.12 1.12 0 0 0-.456-.473 1.164 1.164 0 0 0-.65-.143c-.553 0-.948.154-1.106.539a4.846 4.846 0 0 0-.237 1.692v8.23a3.112 3.112 0 0 0 .316 1.616c.158.385.553.539 1.106.539s.87-.154 1.027-.539c.18-.52.26-1.067.237-1.615v-1.846h3.873v1.538a5.776 5.776 0 0 1-1.186 3.846c-.79.923-2.133 1.385-4.03 1.385-1.897-.077-3.32-.539-4.11-1.539ZM105.253 13.23h4.504l3.32 17.54h-3.636l-.632-3.693h-2.608l-.632 3.692h-3.715l3.399-17.538Zm3.24 11.54-.948-6.847-.949 6.846h1.897ZM115.843 16.154h-2.687V13.23h9.404v2.846h-2.687v14.692h-4.03V16.154ZM129.752 13.23h6.955v1.847h-4.505v5.77h3.635v1.768h-3.635v6.462h4.505v1.77h-7.034V13.23h.079ZM138.761 13.23h1.739l5.137 11.616V13.231h2.055v17.538h-1.581l-5.216-12v12h-2.134V13.231ZM150.063 13.23h6.954v1.847h-4.504v5.77h3.635v1.768h-3.635v6.462h4.504v1.77h-6.954V13.23ZM159.072 13.23h3.635a6.452 6.452 0 0 1 4.031 1.078c.869.692 1.264 1.923 1.264 3.538 0 2.23-.711 3.616-2.212 4.077l2.528 8.77h-2.449l-2.371-8.232h-1.976v8.231h-2.529V13.231h.079Zm3.477 7.54a3.523 3.523 0 0 0 2.292-.616c.474-.385.711-1.154.711-2.308a4.84 4.84 0 0 0-.237-1.692 1.975 1.975 0 0 0-.869-.923 3.69 3.69 0 0 0-1.739-.308h-1.106v5.77h.948v.076ZM171.163 29.462A7.614 7.614 0 0 1 170.057 25v-5.846a12.267 12.267 0 0 1 .395-3.308 3.92 3.92 0 0 1 1.502-2 5.27 5.27 0 0 1 2.924-.692c1.66 0 2.845.385 3.556 1.23a5.773 5.773 0 0 1 1.107 3.847v.615h-2.371v-.538c.003-.645-.05-1.288-.158-1.923a1.533 1.533 0 0 0-.633-1 2.491 2.491 0 0 0-1.501-.385 2.417 2.417 0 0 0-1.581.461 1.734 1.734 0 0 0-.632 1.231 14.024 14.024 0 0 0-.158 2.077v6.539a6.816 6.816 0 0 0 .474 2.923c.316.615.949.846 1.897.846.374.045.754-.018 1.092-.182.337-.165.617-.422.805-.741a6.922 6.922 0 0 0 .553-3.077v-1.23h-2.292v-1.77h4.584v8.692h-1.581l-.237-2a3.143 3.143 0 0 1-1.226 1.658 3.287 3.287 0 0 1-2.014.573 4.047 4.047 0 0 1-1.899-.352 3.938 3.938 0 0 1-1.5-1.186ZM184.678 24.615l-3.873-11.307h2.371l2.766 8.461 2.687-8.461H191l-3.872 11.307v6.154h-2.371v-6.154h-.079Z"></path></g><defs><clipPath id="logo-mobile_0"><path fill="#fff" d="M0 0h33.32v37.61H0z"></path></clipPath><clipPath id="logo-mobile_1"><path fill="#fff" transform="translate(90 13)" d="M0 0h101v18H0z"></path></clipPath></defs></svg><svg fill="none" id="logo-tablet" viewBox="0 0 174 52"><g clip-path="url(#logo-tablet_0)"><path fill="#FDC305" d="M51.6 20.9A22.2 22.2 0 0 0 34 7.4a21.9 21.9 0 0 0-20.3 8.4A22.4 22.4 0 0 0 28 51.4l-1.5-6c1.4 1 2.7 1.7 4.1 2.3l.3 4c1.5 0 3-.1 4.6-.4v-.7c.2-1.6 1-4.5 1-6.4 1-1 1.9-2 2.6-3.3v.4c-.6 3.7-1.6 7.7-2.2 8.8l-.7 1a22 22 0 0 0 17-20.8c.2-3.2-.4-6.5-1.6-9.4ZM50.3 24c-.4.4-1.1.7-1.3-.5l-.1-1.9s-1.7-3-2.3-3c-.6 0-5 3-6.2 4.4-1 1-1.2 1-1.2 3 0 1.5.2 7 0 11.4l-7 1.8c-2.2.7-4.4 1.2-6.7 1.5l-.8-5h-.1l-2.3-11.5-4.5-1.6a3.2 3.2 0 0 0-3.4.6 4.4 4.4 0 0 0-1.5 3.3l.4 1.3c0 .4-1 .4-1.7.4s-.8-1.3-.2-2.8a19.9 19.9 0 0 1 3.3-5.7s.1-.3 1-.2l6.4.4v-2a122 122 0 0 1 17.4-1.2v1.6c2.2-1 4.6-1.6 7-1.7a.8.8 0 0 1 .7.3l2.3 3 1.6 2.5c-.2.6-.4 1.2-.8 1.6Z"></path><path fill="#F06351" d="m48.6 18.8.9 1.2 1.6 2.6c-.2.5-.4 1-.8 1.5-.3.4-1.1.6-1.3-.5l-.1-1.9s-1.7-3-2.3-3c-.6 0-5 3-6.2 4.4-1 1-1.2 1-1.2 3l.1 9.7c1.6.2 3.8.6 4.5 1.7 0 0-.2-6.3 6.8-3 0 0 .2-8.5 9.8-6.3-3.2-4-7.2-7-11.8-9.4Zm-9-2c0-4.8-.4-9.6-1.2-14.3 0 0-.2-1.2-.8-.3-.5 1.1-.9 2.3-1 3.5-3.7-.2-7.4-.1-11 .3-.8-2.4-2-3.5-2.6-3.2-.5.3-.6 2.9-.6 2.9L22.1 18a122 122 0 0 1 17.5-1.2Z"></path><path fill="#E55645" d="M39 41c.2-1 .2-2.2.3-3.6l-7 1.9c-2.3.7-4.5 1.2-6.8 1.5l1 4.4v.3c1.4.8 2.7 1.6 4.1 2.2 2.1-1 4.1-2.2 6-3.6 1-.9 1.8-2 2.5-3.2Z"></path><path fill="#000" d="m27.6 14 1.2.9.5.5c0 .2-.2.3-.5.3l-.9-.2c0-.1.5 0 .8 0h.3a7 7 0 0 1-1.4-1.4Zm6.4.2-1 1.2s0 .2.3.2a7 7 0 0 0 1-.2l-.1-.2-.9.1.8-1.1s0-.1 0 0Zm-2.7 5.3a2 2 0 0 0 1-.9c.2-.5 0-.8-.4-.8-.5-.1-1 0-1.5.3-.4.3-.3.6 0 .8.3.3.6.4 1 .6Z"></path><path fill="#F06351" d="M31 20.6c0 .2-.2.4-.4.5-.2.2-.5.3-.8.3-.5 0-1 0-1.4-.3l-.4-.4-.3-.2s.6 3.5 2.2 4.1c1.5.6 1.8-.7 1.9-1 0-1-.2-2-.7-2.8v-.2Z"></path><path fill="#000" d="M29.5 21.6a3 3 0 0 1-2-1.3.1.1 0 0 1 0-.1.1.1 0 0 1 .1 0 2.8 2.8 0 0 0 2 1.1 1.8 1.8 0 0 0 1.3-.9l.1-.1.1.2s.4.6.9.7c.5 0 1-.4 1.4-1.2h.2a.1.1 0 0 1 0 .2c-.6.8-1.1 1.2-1.6 1.2a1.3 1.3 0 0 1-1-.6 2 2 0 0 1-1.5.8Z"></path><path fill="#FDC305" d="M31.2 33.3c1.8 0 3.3-1.5 3.3-3.3 0-1.8-1.5-3.2-3.3-3.2A3.2 3.2 0 0 0 28 30c0 1.8 1.5 3.3 3.2 3.3Z"></path><path fill="#111" d="m35.5 27.4-2.7 1.1 1-4.9-6.4 8.5L30 31l-1 4.9 6.5-8.5Zm-6.3 3.3 3.5-4.7-.7 3.5 1.8-.7-3.7 4.7.7-3.5-1.6.7ZM28 29.4c.5 0 1-.4 1-1 0-.5-.5-1-1-1a1 1 0 0 0-1 1c0 .6.4 1 1 1Zm5.6 3.6c.3 0 .6-.4.6-.7 0-.4-.3-.7-.6-.7-.4 0-.7.3-.7.7 0 .3.3.6.7.6Zm.8-2c.2 0 .3 0 .3-.2s-.1-.3-.3-.3c-.2 0-.3 0-.3.3 0 .1.1.3.3.3Z"></path><path fill="#F06351" d="m39.5 18.4-4.4 4.5c-1.3 1.6-2.9 3-4.5 4.3-.2-.5-1.4-1.3-1.4-1.3l-4.5-3.4c-1-.8-1.9-1.7-2.7-2.6h-1.7c2.4 3.6 6 6.3 10.3 7.6.7-.1 2.8-1.6 4.4-2.9 1.8-1.5 3.5-3.3 5.1-5 .5-.6.8-1.2 1-1.8l-1.6.6Zm-17.2 5.9-4.5-1.6a3.2 3.2 0 0 0-3.4.6 4.4 4.4 0 0 0-1.5 3.3l.4 1.3c0 .4-1 .4-1.7.4s-.8-1.3-.2-2.8c.4-1 .9-2.2 1.5-3.2A172 172 0 0 0 0 30.5c2.4-.2 4.7-.1 7 .2 4.6.4 4.4 4 4.4 4a33 33 0 0 1 4.8-1c1.8 0 2 2 2 2l.4 3.3c.7-.8 1.5-1.5 2.3-2 1-1 2.4-1.4 3.8-1.2l-2.4-11.5Z"></path><path fill="#111" d="M73.8 36.5c-.9-1.3-1.3-3-1.2-4.5v-6.5c-.1-1.6.3-3.2 1.2-4.6.8-1 2.1-1.5 4-1.5 2 0 3.3.4 4 1.3a5.9 5.9 0 0 1 1.1 4v1.5h-3.5v-1.7l-.1-1.3c0-.3-.2-.6-.5-.8a1.3 1.3 0 0 0-1-.3 1.2 1.2 0 0 0-1.2.6c-.3.6-.4 1.3-.3 2v8.2c0 .6 0 1.3.3 1.9a1.3 1.3 0 0 0 1.3.6 1.2 1.2 0 0 0 1.2-.6c.2-.6.3-1.3.2-2v-1.6H83v1.5c.1 1.4-.3 2.8-1 4-.8 1-2.1 1.4-4 1.4s-3.3-.5-4.1-1.6Zm14-16.9h4L95.4 38H92l-.6-4h-2.8l-.7 4h-3.5l3.5-18.3Zm3.1 12-1-7.4-1.1 7.3h2.1Zm7.1-9.2h-2.8v-2.8h9.2v2.8h-2.8v15.4H98V22.4Z"></path><path fill="#444" d="M111.7 19.6h7v2h-4.5v6h3.6v1.7h-3.6V36h4.5v1.8h-7V19.6Zm9 0h1.8l5.1 12.1v-12h2.1v18.2h-1.6L123 25.4v12.4h-2l-.2-18.2Zm11.8 0h7v2H135v6h3.7v1.7H135V36h4.5v1.8h-7V19.6Zm9.1 0h3.6a6 6 0 0 1 4 1.2c.9.7 1.3 2 1.3 3.7 0 2.3-.7 3.7-2.2 4.2l2.6 9.1h-2.5l-2.3-8.5h-2v8.5h-2.5V19.6Zm3.4 7.8c.9.1 1.7-.1 2.3-.6a3.1 3.1 0 0 0 .8-2.4c0-.6-.1-1.2-.3-1.7a1.6 1.6 0 0 0-.9-1 4 4 0 0 0-1.7-.3H144v6h1Zm9 9.1c-1-1.4-1.3-3-1.2-4.7v-6c0-1.2.1-2.4.4-3.5.3-.9.8-1.6 1.5-2.1a5 5 0 0 1 3-.7 4.5 4.5 0 0 1 3.5 1.2 6.1 6.1 0 0 1 1.1 4v.8H160v-.6c0-.7 0-1.4-.2-2 0-.5-.3-.8-.6-1.1-.5-.3-1-.4-1.5-.4-.6 0-1.1.2-1.6.5-.3.4-.6.8-.6 1.3a13 13 0 0 0-.2 2.2V32c0 1 .1 2.1.5 3a2.4 2.4 0 0 0 3.9 0c.4-1 .6-2.1.5-3.2v-1.3h-2.3v-1.8h4.6v9h-1.6l-.2-2a3.2 3.2 0 0 1-3.2 2.3 4 4 0 0 1-3.6-1.6Zm13.7-5.1-3.9-11.8h2.4l2.7 8.8 2.7-8.8h2.4l-3.9 11.8v6.4h-2.4v-6.4Z"></path></g><defs><clipPath id="logo-tablet_0"><path fill="#fff" d="M0 0h174v51.7H0z"></path></clipPath></defs></svg><svg fill="none" id="mail" viewBox="0 0 20 20"><path stroke="#000" stroke-linecap="round" stroke-linejoin="round" d="M1.5 8.5v8h17v-8m-17-5h17v2l-8.5 6-8.5-6v-2Z"></path></svg><svg fill="none" id="phone" viewBox="0 0 20 20"><path stroke="#000" stroke-linecap="round" stroke-linejoin="round" d="M10 10h8.5m0 0L16 7.5m2.5 2.5L16 12.5m-7.5-10v5h-3v5h3v5H6c-1.5 0-2.5-1-2.5-2.5V5c0-1.5 1-2.5 2.5-2.5h2.5Z"></path></svg><svg fill="none" id="powder" viewBox="0 0 26 29"><path fill="#fff" d="M10.9 0c-1.7 0-3 1.4-3 3 0 1.8 1.3 3.2 3 3.2 1.6 0 2.9-1.4 2.9-3.1 0-1.7-1.3-3.1-3-3.1Zm0 1.2c1 0 1.7.8 1.7 1.9 0 1-.8 1.9-1.7 1.9-1 0-1.7-.9-1.7-2 0-1 .7-1.8 1.7-1.8ZM0 24.7c0 1.2.4 2.2 1.4 3 1 .9 2.1.8 2.1.8h19c.8 0 1.9-.4 2.7-1.4.8-1 .8-2.4.8-2.4V7.5c0-.4-.1-.6-.8-.6-.6 0-.6.3-.6.6v17.2c0 .3-.1 1-.8 1.7-.7.6-1.4.6-1.4.6h-19c-.4-.1-1-.3-1.5-1s-.4-1.6-.4-1.6V7.2c0-.5-.3-.7-.8-.7-.4 0-.7.2-.7.6v17.6ZM16.3 8.4c-1 .3-2.2.4-4.2 2.4-2.1 2-3.7 1.9-5.2 1.8-1.6 0-3.2-1.5-3.5-2-.3-.3-.9 0-1 .2-.2.2-.2.7 0 1a7 7 0 0 0 4.8 2.3c2.2.2 4.4-.8 5.9-2.3 1.4-1.4 2.1-1.7 3.2-1.9 2.7-.4 4.2.6 5.1 1.3 1 1 1.3.8 1.5.4.6-.7-.2-1.2-1-1.9a7.2 7.2 0 0 0-5.6-1.2Zm-9 7.2c-1.2 0-2.1 1-2.1 2.3 0 1.2.9 2.2 2 2.2 1.2 0 2.1-1 2.1-2.2 0-1.3-.9-2.3-2-2.3Zm11.7.8c-1.5 0-2.8 1.3-2.8 3 0 1.6 1.3 3 2.8 3 1.6 0 2.8-1.4 2.8-3 0-1.7-1.2-3-2.8-3Zm0 1.4c.8 0 1.5.7 1.5 1.6 0 .8-.7 1.5-1.5 1.5s-1.4-.7-1.4-1.5c0-.9.6-1.6 1.4-1.6Z"></path></svg><svg fill="none" id="present" viewBox="0 0 78 80"><path fill="#fff" d="M64 34.7H14a3.2 3.2 0 0 1-3.2-3.1V22c0-1.8 1.5-3.2 3.2-3.2h50c1.8 0 3.2 1.4 3.2 3.2v9.5c0 1.7-1.4 3.1-3.2 3.1ZM14 21.3c-.4 0-.7.4-.7.8v9.5c0 .4.3.7.7.7h50c.4 0 .8-.3.8-.7V22c0-.4-.4-.8-.8-.8H14Z"></path><path fill="#fff" d="M57 67.1H21a6.1 6.1 0 0 1-6.1-6V33.5c0-.7.5-1.2 1.2-1.2s1.2.5 1.2 1.2v27.6c0 2 1.7 3.6 3.7 3.6h36c2 0 3.7-1.6 3.7-3.6V33.5c0-.7.6-1.2 1.2-1.2.7 0 1.3.5 1.3 1.2v27.6c0 3.3-2.8 6-6.2 6Z"></path><path fill="#fff" d="M39 67.1c-.7 0-1.2-.5-1.2-1.2V33.5c0-.7.5-1.2 1.2-1.2s1.2.5 1.2 1.2v32.4c0 .7-.5 1.2-1.2 1.2ZM23.8 21.3a7.8 7.8 0 0 1-3.2-10.6 8 8 0 0 1 10.7-3.1c5.8 3.1 9 11.8 9 12.2l-2.2.8s-3-8.2-8-10.9a5.4 5.4 0 1 0-5.2 9.5l-1 2.1Z"></path><path fill="#fff" d="m54.2 21.3-1.1-2a5.4 5.4 0 0 0-1-10 5.4 5.4 0 0 0-4.2.4c-5 2.7-8 10.8-8 11l-2.2-.9c0-.4 3.2-9 9-12.2a7.9 7.9 0 0 1 11.3 9c-.6 2.1-2 3.7-3.8 4.7ZM62 51H16c-.6 0-1.1-.6-1.1-1.3 0-.6.5-1.2 1.2-1.2h45.8c.7 0 1.3.6 1.3 1.2 0 .7-.6 1.2-1.3 1.2Z"></path></svg><svg fill="none" id="sheet" viewBox="0 0 31 32"><g clip-path="url(#sheet_0)"><path fill="#fff" d="M28.3 2.8a1 1 0 0 0-.9-.8c-5 0-17 1-21.8 8.4-2.5 3.9-2.7 8.9-.6 15-.7 2-1 3.4-1 3.4 0 .5.2 1 .7 1.2H5a1 1 0 0 0 1-.8s2.4-10.4 10.8-16.4c.4-.3.6-.9.3-1.4a.9.9 0 0 0-1.3-.2 30 30 0 0 0-9.5 11.6c-1.3-4.6-1-8.4 1-11.3 3.7-5.7 12.6-7.1 18-7.4A20 20 0 0 0 22.7 15c0 3.1-.8 5.5-2.4 7.1-2.6 2.6-6.9 2.9-10 2.6-.5 0-1 .4-1 1 0 .5.3 1 .8 1l2 .1c3.2 0 6.9-.7 9.5-3.2 2-2 3-4.9 3-8.6 0-9.1 3.2-11.1 3.3-11.1.3-.2.5-.7.4-1.1Z"></path></g><defs><clipPath id="sheet_0"><path fill="#fff" d="M.5 0h30v32H.5z"></path></clipPath></defs></svg><svg id="sprite"><style>:root svg:not(:target){display:none}</style><svg id="sprite_0" fill="none" viewBox="0 0 24 12"><path stroke="#000" stroke-width="2" d="M0 6h18"></path><path fill="#000" d="m24 6-6.8 5.2V.8L24 6Z"></path></svg><svg id="sprite_1" fill="none" viewBox="0 0 50 53"><circle cx="25" cy="28" r="25" fill="#68B738"></circle><g clip-path="url(#sprite_2)"><path fill="#000" d="M35.2 0H35c-.3.2-.6.5-.7.8a8 8 0 0 0-.7 1.8.8.8 0 0 1-.8.7 3.8 3.8 0 0 0-2.7 2 14 14 0 0 0-1 2L27.3 13c-.3 1-.3 1-1.3 1-1.2 0-1-.3-1.1 1 0 .4.1.6.5.6l.4.1c0 .2 0 .3-.2.4-.6.6-1.4 1-2.2 1.2l-3 .8c-2.4.8-4.6 2-6.4 4-1 1.1-1.9 2.5-2.4 4A56.6 56.6 0 0 0 7.9 40a97 97 0 0 0-.7 6.7L7 50h17.1v-.7a2.6 2.6 0 0 0-2-1.5c-.4-.1-.4-.2-.2-.5l.8-1.6c.8-2.5 1.2-5 1.6-7.6.2-2 .8-3.9 1.7-5.6.8-1.3 1.7-2.4 2.9-3.3.4-.3.4-.3.5.2l.1 1.1c.2 2.5.1 5 0 7.3a31.9 31.9 0 0 0 1 12.2h6.8a2.8 2.8 0 0 0-2.1-2.3l-2 .1c-.3 0-.4 0-.4-.3-.2-2.7 0-5.5.5-8.2.7-3 1.2-6.2 1.6-9.3 0-1.3.5-2.5 1.1-3.7l1.8-3.3a3 3 0 0 0 .2-2.7l-.5-1-1.5-3c-.2-.6-.1-.6.4-.7.9 0 .9 0 .9-.8v-.3c0-.4-.2-.6-.5-.6H36c-.4 0-.5-.1-.4-.5a3.2 3.2 0 0 1 2.6-2.3c1.2 0 2.3 0 3.4.3a.5.5 0 0 0 .7-.4 40 40 0 0 1 .7-1.8l-.1-.3a18.3 18.3 0 0 0-6.2-5.5l-.1-.4-.7-2.1c-.1-.4-.4-.7-.7-.9Z"></path></g><defs><clipPath id="sprite_2"><path fill="#fff" d="M7 0h36v50H7z"></path></clipPath></defs></svg><svg id="sprite_3" fill="none" viewBox="0 0 200 211"><circle cx="100" cy="111" r="100" fill="#68B738"></circle><g clip-path="url(#sprite_2)"><path fill="#000" d="M139.7 0h-.8a7 7 0 0 0-2.9 3.2 31 31 0 0 0-2.6 6.8 3.3 3.3 0 0 1-3 2.7 14.7 14.7 0 0 0-10.4 7.5 54.6 54.6 0 0 0-3.7 8c-2.8 7.4-5 15-7.7 22.4-1.3 3.4-1.3 3.4-5.1 3.4-4.6 0-4.2-.7-4.3 4.3 0 1.6.5 2.4 2.2 2.3.5 0 1.3-.3 1.5.4.2.7-.5 1-1 1.4a18 18 0 0 1-8.6 4.9c-3.8 1-7.7 1.8-11.4 3a57.3 57.3 0 0 0-25 15.2 56 56 0 0 0-9.6 15.7A219.4 219.4 0 0 0 33.7 155c-1.3 8.6-2.2 17.3-3 26-.3 4.3-.7 8.6-.7 13h66.7c0-.9 0-1.8-.5-2.6a10 10 0 0 0-7.7-6.1c-1.4-.3-1.5-.7-.7-1.8 1.4-2 2.5-4 3.2-6.2 3.3-9.7 4.5-19.7 6.1-29.6A60 60 0 0 1 104 126c2.8-5 6.6-9.3 11.2-12.7 1.6-1.3 1.7-1.3 2 .8l.3 4.4c.6 9.4.5 18.9-.3 28.3a123.3 123.3 0 0 0 4.2 47.2H148a10.8 10.8 0 0 0-8.5-8.9 18 18 0 0 0-7.5.4c-1.2.3-1.7 0-1.8-1.3-.8-10.6-.2-21.2 2-31.6 2.7-12 4.7-24.2 6.1-36.4.5-5 2.1-9.7 4.6-14 2.4-4.2 4.4-8.6 6.8-12.9a11.7 11.7 0 0 0 .8-10.4c-.5-1.4-1-2.8-1.7-4.2-2-3.9-4-7.7-5.8-11.7-1-2-.8-2.2 1.4-2.3 3.2 0 3.2 0 3.3-3.3v-1.3c0-1.4-.5-2.1-2-2h-3c-1.4 0-1.8-.6-1.5-2a12.5 12.5 0 0 1 10.3-8.8 44 44 0 0 1 13.2.8 2 2 0 0 0 2.5-1.3l2.6-6a2 2 0 0 0-.2-2.2 71.1 71.1 0 0 0-24-21.5 3 3 0 0 1-.6-1.3c-.5-2.9-1.3-5.7-2.5-8.4a7 7 0 0 0-2.8-3.4Z"></path></g></svg><svg id="sprite_4" fill="none" viewBox="0 0 100 106"><circle cx="50" cy="56" r="50" fill="#68B738"></circle><g clip-path="url(#sprite_2)"><path fill="#000" d="M69.8 0h-.3c-.7.4-1.2 1-1.5 1.6-.6 1-1 2.2-1.3 3.4a1.6 1.6 0 0 1-1.5 1.3 7.3 7.3 0 0 0-5.2 3.8l-1.9 4c-1.4 3.7-2.5 7.5-3.8 11.2-.6 1.7-.7 1.7-2.6 1.7-2.2 0-2-.4-2.1 2.1 0 .8.2 1.2 1 1.2.3 0 .7-.1.8.2.1.4-.2.5-.4.7a9 9 0 0 1-4.3 2.4L41 35.2a28.6 28.6 0 0 0-12.6 7.5 28 28 0 0 0-4.7 7.9c-3.7 8.6-5.5 17.7-6.9 27-.6 4.2-1 8.6-1.4 13-.2 2-.4 4.2-.4 6.4h33.3c0-.4 0-.9-.2-1.3a5 5 0 0 0-3.8-3c-.7-.2-.8-.4-.4-1 .7-1 1.3-2 1.6-3 1.6-4.9 2.3-9.9 3-14.9A30 30 0 0 1 52 63c1.4-2.5 3.3-4.6 5.6-6.4.8-.6.9-.6 1 .5l.2 2.1c.3 4.8.2 9.5-.2 14.2A61.7 61.7 0 0 0 60.7 97H74a5.4 5.4 0 0 0-4.2-4.4 9 9 0 0 0-3.8.2c-.6.1-.8 0-.9-.7-.4-5.3 0-10.6 1-15.8 1.3-6 2.4-12 3-18.2.3-2.5 1.1-4.8 2.3-7l3.4-6.4a5.9 5.9 0 0 0 .5-5.2l-.9-2.1-3-5.9c-.4-1-.3-1.1.8-1.1 1.6 0 1.6 0 1.6-1.7v-.6c0-.7-.2-1.1-1-1h-1.5c-.7 0-.9-.3-.7-1a6.2 6.2 0 0 1 5.1-4.5 22 22 0 0 1 6.7.5 1 1 0 0 0 1.2-.7 77.4 77.4 0 0 1 1.4-3.6A35.6 35.6 0 0 0 72.8 6.5l-.3-.6c-.2-1.4-.7-2.8-1.3-4.2C71 1 70.5.4 69.8 0Z"></path></g></svg><svg id="sprite_5" fill="none" viewBox="0 0 67 50"><circle cx="34" cy="25" r="25" fill="#68B738"></circle><g clip-path="url(#sprite_2)"><path fill="#000" d="M61.6 13.9c.5-1 1.3-1.7 2.2-2.3.5-.4.8-.4 1.1.3.4 1 .8 2 .5 3a1.1 1.1 0 0 0 .2 1l.8 1.2a3.1 3.1 0 0 1 .4 3c-.2.6-.2 1.1 0 1.6v1.5a1.9 1.9 0 0 1-1.4 1.6c-.7.2-1.3.5-1.6 1a.5.5 0 0 1-.5.3c-.6 0-2-1.3-2-1.9V24c0-1.8-.1-2-1.8-2.7-.3 0-.6-.3-.9-.6-.3-.4-.7-.3-1.1-.2-.5.2-.7.5-.7 1 .2 1.2.2 2.4.2 3.6v.4c1.6 2.3 2.2 5 3 7.5.6 2 1.7 3 3.7 3.1l1 .2a2 2 0 0 1 1.6 1.6c.4 1 .2 1.3-.9 1.3h-3.2c-.5 0-.9-.1-1.2-.4-.5-.4-1-.8-1.7-1-.7-.3-1.3-.7-1.7-1.3-.6-.8-1.2-1.6-2-2.3-1.4-1.4-2.9-2.8-4.2-4.3-1-1-1.6-2.4-1.6-3.8 0-.5 0-.7-.6-.5a1 1 0 0 1-.5.2c-1.4 0-2 .8-2.6 2-.4 1.1-1 2.1-1.6 3.2-.3.6-.5 1.4-.5 2 0 1.3.3 1.7 1.4 2 .7.3 1.4.6 1.7 1.3.4.8.3 1-.5 1h-3.4a1 1 0 0 1-1-.5l-.9-1.5a3 3 0 0 1-.3-2.7 6 6 0 0 0 0-2.7 4.2 4.2 0 0 1 .9-3.5c.3-.3.3-.5-.2-.6a25 25 0 0 1-6-2c-1.6-.7-1.9-.6-2.3 1L32.3 29c-.4 1.6 0 3.1.5 4.6.2.6.8.6 1.3.7 1 .3 1.8.7 2.2 1.8.4.8.3.9-.5.9h-2.6c-.8 0-1.5-.3-2.1-.7-2.4-1.6-3.1-4-3.3-6.7-.1-1.7-1-3-2-4.2-.3-.3-.5-.4-.8-.2-1 .6-2.2 1.1-3.3 1.5-2.5.9-4.6 2.4-6.1 4.4-.6.8-1 1.6-1.1 2.6-.2.9 0 1.3 1 1.5.9.3 1.3.8 1.4 1.7 0 .4 0 .6-.5.6h-4a.8.8 0 0 1-.7-.4c-.6-.7-1-1.7-1-2.7 0-1.7.2-3.5.5-5.2a3.2 3.2 0 0 1 1.7-2.4c3-1.4 4.5-4 6-6.8.2-.5 0-.6-.5-.6-1.4.2-2.8.8-3.9 1.6-1.5 1.1-2.9 2.3-4.1 3.6A8.3 8.3 0 0 1 5.2 27c-3.6.2-5.2-1.8-5.2-5 0-1.1.5-2.2 1.2-3a2.1 2.1 0 0 1 2.3-.8c.7.2 1 .6.6 1.3l-.5.9-.5 1c-.5 1.5.2 2.5 1.8 2.7 1.6.1 3-.6 4.2-1.6 1.5-1.2 2.9-2.6 4-4.1a10.4 10.4 0 0 1 7.2-4c1.2-.2 2.2-.7 3.3-1 2-.6 4.2-1 6.3-1 1 .1 2 0 3-.5 2.4-1 5-1 7.5-.5l6 1.4c1 .2 2.3.2 3.4 0 2.2-.6 4.4-1 6.7-1a9 9 0 0 1 4.3.8c1 .4 1 .4.8 1.4Z"></path></g></svg><svg id="sprite_6" fill="none" viewBox="0 0 268 200"><circle cx="134" cy="100" r="100" fill="#68B738"></circle><g clip-path="url(#sprite_2)"><path fill="#000" d="M246.2 55.5c2.3-3.7 5.4-6.8 9-9.2 2-1.4 3.2-1.4 4.4 1.2 1.6 3.8 3 7.8 1.8 12a4.6 4.6 0 0 0 .8 4.2l3.2 4.6a12.5 12.5 0 0 1 1.8 12.4c-.7 2-.8 4.2-.4 6.2s.4 4 0 6a7.5 7.5 0 0 1-5.4 6.4c-2.5.5-4.8 2-6.4 4a2 2 0 0 1-1.8 1c-2.4.4-8.4-5-8.4-7.4v-1.2c.2-7.2-.2-7.8-6.8-10.8a8.8 8.8 0 0 1-3.6-2.4c-1.2-1.6-2.8-1.4-4.6-.8-1.8.6-2.8 1.8-2.6 3.8.6 4.9.8 9.7.6 14.6 0 .6.2 1.1.4 1.6 6.2 9 8.6 19.6 11.6 29.8 2.4 7.8 6.8 12 14.8 12.6 1.3.1 2.6.3 3.8.6a8.3 8.3 0 0 1 6.8 6.4c1.4 4.2.6 5.2-3.6 5.2h-13c-1.6.1-3.3-.5-4.6-1.6-2-1.7-4.3-3-6.8-4-2.7-1-5-2.8-6.8-5.2-2.3-3.3-5-6.3-8-9-5.6-5.8-11.6-11.4-16.8-17.4-4-4-6.2-9.5-6.4-15.2 0-1.8-.4-2.6-2.4-1.8-.6.4-1.3.6-2 .6-5.6 0-8.4 3.4-10.4 8.4-1.8 4.2-4.2 8.2-6.4 12.4-1.2 2.6-1.9 5.5-2 8.4 0 4.8 1.2 6.4 5.6 8 2.8 1 5.4 2 6.8 4.8 1.6 3.2 1.2 4-2.2 4.2h-13.6a3.8 3.8 0 0 1-3.8-2.2l-3.6-6a12.1 12.1 0 0 1-1.4-10.8c.9-3.5 1-7 .2-10.6a16.8 16.8 0 0 1 3.4-14c1.2-1.4 1.2-2-.8-2.4a100.2 100.2 0 0 1-23.8-8.4c-6.4-2.4-7.6-2-9.4 4.6-1.6 5.6-3.2 11.2-4.4 17a34 34 0 0 0 2.2 18.4c.8 2.4 3.2 2.2 5 2.8 4 1.2 7.4 2.8 9 7 1.4 3.2 1.2 3.6-2.2 3.6-3.4 0-6.8-.2-10.4 0-3 0-6-1-8.4-2.8-9.6-6.4-12.4-16.2-13.2-26.8-.4-6.6-4-11.8-8.2-16.8-.8-1-1.6-1.4-2.8-.6a88.6 88.6 0 0 1-13.4 6 53.4 53.4 0 0 0-24.4 17.6c-2.3 3-3.8 6.5-4.4 10.2-.6 3.6.4 5.2 4 6.2s5.4 3 5.8 6.8c.2 1.6-.4 2.4-2 2.4H49.4a3.3 3.3 0 0 1-2.6-1.6c-2.5-3.1-3.8-7-3.8-11 0-6.9.5-13.8 1.8-20.6a12.6 12.6 0 0 1 6.8-9.6c11.8-5.6 18-16.2 23.6-27.2 1.2-2.2.2-2.6-1.8-2.4A33 33 0 0 0 58 84.1c-5.9 4.3-11.4 9-16.6 14.2-5.5 5.6-12.8 9-20.6 9.8C6.2 109-.6 100.7 0 87.5c.2-4.5 2-8.8 4.8-12.2a8.5 8.5 0 0 1 9-3c3 .8 3.8 2.4 2.6 5.4l-2 3.4a15 15 0 0 0-2 4c-2.2 6 .8 10.2 7 10.8 6.6.6 12-2.2 17-6.2 6-4.8 11.4-10.4 16-16.6A41.6 41.6 0 0 1 81.2 57c4.6-.6 8.6-2.6 13-3.8a83 83 0 0 1 25.4-3.6c4 .2 8-.6 11.6-2.2 9.8-4 20-4 30.2-2 8 1.6 16 3.6 23.8 5.6 4.7.9 9.5.7 14-.4 8.8-2.2 17.8-3.6 26.8-4 6-.3 11.9.9 17.2 3.4 4 1.8 4 1.8 3 5.6Z"></path></g></svg><svg id="sprite_7" fill="none" viewBox="0 0 134 100"><circle cx="69" cy="50" r="50" fill="#68B738"></circle><g clip-path="url(#sprite_2)"><path fill="#000" d="M123.1 25.8c1.2-1.9 2.7-3.4 4.5-4.6 1-.7 1.6-.7 2.2.6.8 1.9 1.5 3.9 1 6a2.3 2.3 0 0 0 .3 2l1.6 2.4a6.3 6.3 0 0 1 1 6.2c-.4 1-.5 2-.3 3s.2 2 0 3a3.8 3.8 0 0 1-2.7 3.3c-1.3.2-2.4 1-3.2 2a1 1 0 0 1-.9.5c-1.2.2-4.2-2.5-4.2-3.7v-.6c.1-3.6 0-4-3.4-5.4-.7-.3-1.3-.7-1.8-1.2-.6-.8-1.4-.7-2.3-.4-.9.3-1.4.9-1.3 1.9.3 2.4.4 4.8.3 7.3 0 .2 0 .5.2.8 3.1 4.5 4.3 9.8 5.8 14.9 1.2 3.9 3.4 6 7.4 6.3.7 0 1.3.1 2 .3a4.2 4.2 0 0 1 3.3 3.2c.7 2 .3 2.6-1.8 2.6h-6.5c-.8 0-1.6-.3-2.3-.8-1-.9-2.1-1.6-3.4-2a7.3 7.3 0 0 1-3.4-2.6 28.6 28.6 0 0 0-4-4.5c-2.8-3-5.8-5.7-8.4-8.7-2-2-3.1-4.8-3.2-7.6 0-1-.2-1.3-1.2-1a2 2 0 0 1-1 .4c-2.8 0-4.2 1.7-5.2 4.2-.9 2-2 4-3.2 6.2-.6 1.3-1 2.7-1 4.2 0 2.4.6 3.2 2.8 4 1.4.5 2.7 1 3.4 2.4.8 1.6.6 2-1 2h-6.9a1.9 1.9 0 0 1-1.9-1l-1.8-3A6 6 0 0 1 82 63c.5-1.8.5-3.6.1-5.3a8.4 8.4 0 0 1 1.7-7c.6-.7.6-1-.4-1.2a50 50 0 0 1-11.9-4.2c-3.2-1.2-3.8-1-4.7 2.3-.8 2.8-1.6 5.6-2.2 8.5a17 17 0 0 0 1.1 9.2c.4 1.2 1.6 1 2.5 1.4 2 .6 3.7 1.4 4.5 3.5.7 1.6.6 1.8-1 1.8h-5.3c-1.5 0-3-.5-4.2-1.4-4.8-3.2-6.2-8.1-6.6-13.4-.2-3.3-2-6-4-8.4-.5-.5-.9-.7-1.5-.3a44.3 44.3 0 0 1-6.7 3c-4.8 1.7-9 4.7-12.2 8.8-1.2 1.4-2 3.2-2.2 5-.3 1.9.2 2.7 2 3.2s2.7 1.5 3 3.4c0 .8-.3 1.2-1 1.2h-8.2a1.6 1.6 0 0 1-1.3-.8 8.6 8.6 0 0 1-1.9-5.5c0-3.5.3-7 1-10.3a6.3 6.3 0 0 1 3.3-4.8c6-2.8 9-8.1 11.8-13.6.6-1.1.1-1.3-.9-1.2-2.8.3-5.4 1.4-7.7 3.2-3 2.1-5.7 4.5-8.3 7a16.7 16.7 0 0 1-10.3 5C3.1 52.5-.3 48.4 0 41.8c0-2.3 1-4.5 2.4-6.1A4.2 4.2 0 0 1 7 34.2c1.5.4 2 1.2 1.3 2.7l-1 1.7c-.4.6-.8 1.2-1 2-1 3 .4 5 3.5 5.4 3.3.3 6-1.1 8.5-3.1a45 45 0 0 0 8-8.3 20.8 20.8 0 0 1 14.4-8.1c2.3-.3 4.3-1.3 6.5-2 4.1-1.2 8.4-1.8 12.7-1.7 2 0 4-.3 5.8-1.1 5-2 10-2 15.1-1 4 .8 8 1.8 12 2.8 2.2.4 4.6.3 7-.2 4.3-1.2 8.8-1.8 13.3-2 3-.2 6 .4 8.6 1.7 2 .9 2 .9 1.5 2.8Z"></path></g></svg><svg id="sprite_8" fill="none" viewBox="0 0 31 32"><g clip-path="url(#sprite_2)"><path fill="#fff" d="M28.3 2.8a1 1 0 0 0-.9-.8c-5 0-17 1-21.8 8.4-2.5 3.9-2.7 8.9-.6 15-.7 2-1 3.4-1 3.4 0 .5.2 1 .7 1.2H5a1 1 0 0 0 1-.8s2.4-10.4 10.8-16.4c.4-.3.6-.9.3-1.4a.9.9 0 0 0-1.3-.2 30 30 0 0 0-9.5 11.6c-1.3-4.6-1-8.4 1-11.3 3.7-5.7 12.6-7.1 18-7.4A20 20 0 0 0 22.7 15c0 3.1-.8 5.5-2.4 7.1-2.6 2.6-6.9 2.9-10 2.6-.5 0-1 .4-1 1 0 .5.3 1 .8 1l2 .1c3.2 0 6.9-.7 9.5-3.2 2-2 3-4.9 3-8.6 0-9.1 3.2-11.1 3.3-11.1.3-.2.5-.7.4-1.1Z"></path></g></svg><svg id="sprite_9" fill="none" viewBox="0 0 26 29"><path fill="#fff" d="M10.9 0c-1.7 0-3 1.4-3 3 0 1.8 1.3 3.2 3 3.2 1.6 0 2.9-1.4 2.9-3.1 0-1.7-1.3-3.1-3-3.1Zm0 1.2c1 0 1.7.8 1.7 1.9 0 1-.8 1.9-1.7 1.9-1 0-1.7-.9-1.7-2 0-1 .7-1.8 1.7-1.8ZM0 24.7c0 1.2.4 2.2 1.4 3 1 .9 2.1.8 2.1.8h19c.8 0 1.9-.4 2.7-1.4.8-1 .8-2.4.8-2.4V7.5c0-.4-.1-.6-.8-.6-.6 0-.6.3-.6.6v17.2c0 .3-.1 1-.8 1.7-.7.6-1.4.6-1.4.6h-19c-.4-.1-1-.3-1.5-1s-.4-1.6-.4-1.6V7.2c0-.5-.3-.7-.8-.7-.4 0-.7.2-.7.6v17.6ZM16.3 8.4c-1 .3-2.2.4-4.2 2.4-2.1 2-3.7 1.9-5.2 1.8-1.6 0-3.2-1.5-3.5-2-.3-.3-.9 0-1 .2-.2.2-.2.7 0 1a7 7 0 0 0 4.8 2.3c2.2.2 4.4-.8 5.9-2.3 1.4-1.4 2.1-1.7 3.2-1.9 2.7-.4 4.2.6 5.1 1.3 1 1 1.3.8 1.5.4.6-.7-.2-1.2-1-1.9a7.2 7.2 0 0 0-5.6-1.2Zm-9 7.2c-1.2 0-2.1 1-2.1 2.3 0 1.2.9 2.2 2 2.2 1.2 0 2.1-1 2.1-2.2 0-1.3-.9-2.3-2-2.3Zm11.7.8c-1.5 0-2.8 1.3-2.8 3 0 1.6 1.3 3 2.8 3 1.6 0 2.8-1.4 2.8-3 0-1.7-1.2-3-2.8-3Zm0 1.4c.8 0 1.5.7 1.5 1.6 0 .8-.7 1.5-1.5 1.5s-1.4-.7-1.4-1.5c0-.9.6-1.6 1.4-1.6Z"></path></svg><svg id="sprite_10" fill="none" viewBox="0 0 25 30"><path fill="#fff" fill-rule="evenodd" d="M18.6 0c.4 0 .8 0 1.1.3 1 .9 2.1 2.9 3 6 1 3 1.8 7.2 1.8 12.7 0 .6-.4 1-1 1H20v9a1 1 0 1 1-2 0V1c0-.4.2-.8.6-1ZM20 18h2.5A39.6 39.6 0 0 0 20 4.5V18ZM6 0c.6 0 1 .4 1 1v28a1 1 0 1 1-2 0V1c0-.6.4-1 1-1Z" clip-rule="evenodd"></path><path fill="#fff" fill-rule="evenodd" d="M1.5 0c.6 0 1 .4 1 1v5.5c0 .6.2 1.3.7 2 .5.5 1.3 1 2.8 1a1 1 0 1 1 0 2c-2 0-3.4-.7-4.3-1.8A5 5 0 0 1 .5 6.5V1c0-.6.4-1 1-1Z" clip-rule="evenodd"></path><path fill="#fff" fill-rule="evenodd" d="M10.5 0a1 1 0 0 0-1 1v5.5a3 3 0 0 1-.7 2c-.5.5-1.3 1-2.8 1a1 1 0 0 0 0 2c2 0 3.4-.7 4.3-1.8a5 5 0 0 0 1.2-3.2V1c0-.6-.4-1-1-1Z" clip-rule="evenodd"></path></svg><svg id="sprite_11" fill="none" viewBox="0 0 26 31"><path fill="#fff" d="M5.5 0c-1 0-1 1.6 0 1.6h6.7v1.6C5.4 3.6 0 9.4 0 16.5c0 4 1.7 7.6 4.5 10 .5.5.5 1.2.1 1.7l-1.5 1.5c-.8.7.3 1.8 1 1l2-2c.4-.3.9-.4 1.3-.2a12.7 12.7 0 0 0 11 0c.5-.2 1 0 1.4.3l2 2c.6.6 1.6-.4 1-1l-1.5-1.5c-.4-.5-.4-1.2.1-1.7A13.5 13.5 0 0 0 26 16.5c0-7.1-5.4-12.9-12.2-13.3V1.6h6.6c1 0 1-1.6 0-1.6H5.5Zm-4 16.5C1.4 9.9 6.5 4.7 13 4.7s11.6 5.2 11.6 11.8c0 6.5-5.2 11.8-11.6 11.8-6.4 0-11.6-5.3-11.6-11.8Zm10.7-8.1c0-1.1 1.7-1.1 1.7 0V17a.8.8 0 0 1-.9.9.8.8 0 0 1-.8-.8V8.4Zm-5 2.6a1.2 1.2 0 0 0 1.2-1.2 1.1 1.1 0 0 0-1.2-1.1 1.2 1.2 0 0 0-1 1.1 1.1 1.1 0 0 0 1 1.2Zm11.6 0a1.2 1.2 0 0 0 1.1-1.2 1.1 1.1 0 0 0-1.1-1.1 1.2 1.2 0 0 0-1 1.1 1.1 1.1 0 0 0 1 1.2ZM8.4 23.6C8.4 25 6 25 6 23.6s2.3-1.5 2.3 0ZM13 27a1.2 1.2 0 0 0 1.2-.7 1.1 1.1 0 0 0-.7-1.5 1.2 1.2 0 0 0-1.2.3 1.1 1.1 0 0 0 .7 2ZM5 16.6a1.1 1.1 0 0 1-.8 1.2 1.2 1.2 0 0 1-1.5-.7A1.1 1.1 0 0 1 3 16a1.2 1.2 0 0 1 2 .7Zm17.2 1.2a1.2 1.2 0 0 0 1.2-.7 1.1 1.1 0 0 0-.7-1.5 1.2 1.2 0 0 0-1.2.3 1.1 1.1 0 0 0 .7 1.9ZM20 23.6c0 1.5-2.3 1.5-2.3 0s2.3-1.5 2.3 0Z"></path></svg><svg id="sprite_12" fill="none" viewBox="0 0 20 20"><path stroke="#000" stroke-linecap="round" stroke-linejoin="round" d="M1.5 8.5v8h17v-8m-17-5h17v2l-8.5 6-8.5-6v-2Z"></path></svg><svg id="sprite_13" fill="none" viewBox="0 0 20 20"><path stroke="#000" stroke-linecap="round" stroke-linejoin="round" d="M10 10h8.5m0 0L16 7.5m2.5 2.5L16 12.5m-7.5-10v5h-3v5h3v5H6c-1.5 0-2.5-1-2.5-2.5V5c0-1.5 1-2.5 2.5-2.5h2.5Z"></path></svg><svg id="sprite_14" fill="none" viewBox="0 0 19 15"><path fill="#68B738" d="M7 11.7 1.3 5.3l-1 1.2L7 14 18.3 1.4 17.1 0 7 11.7Z"></path></svg><svg id="sprite_15" fill="none" viewBox="0 0 29 22"><g clip-path="url(#sprite_2)"><path fill="#666" d="M1.5 5.3C1.5 4.5 2 4 3 4h4c.3 0 .5.1.5.4L9 7.6a39.7 39.7 0 0 0 2.4 3.4s.2 0 .2-.2l.1-.3V6.2c0-.3 0-.5-.2-.6l-.8-.2c-.3 0-.5-.3-.5-.6v-.1c.4-1.1 1.5-1.7 3.2-1.7h1.5c.7 0 1.3.2 1.7.5.4.3.7.8.7 1.5v5.7l.3.1c.3 0 .5-.1.7-.4A17.7 17.7 0 0 0 21.4 5l.6-.7.8-.4h4.6c.4 0 .7.2.8.5l.2.3a2.4 2.4 0 0 1 0 .6v.1c0 .7-.4 1.5-.9 2.2-.5.8-1.1 1.7-2 2.6a27.6 27.6 0 0 0-1.6 2.3c0 .1 0 .3.2.5l3.9 4.6c.2.3.3.5.3.9s-.2.7-.5 1a2 2 0 0 1-1.1.3H22l-.1.1c-.4 0-.8-.2-1.1-.5a241.3 241.3 0 0 1-3-3.3 38.5 38.5 0 0 0-.4 2.3l-.1.4c-.2.6-.6 1-1.1 1h-3c-1.5 0-3-.6-4.4-1.8-1.5-1.3-2.8-3-4-5a47.5 47.5 0 0 1-3.4-7.8Zm16 6.6c-.4 0-.7-.1-1-.3a.9.9 0 0 1-.5-.8V5c0-.3 0-.6-.2-.7-.2-.2-.5-.2-1-.2h-1.5c-.7 0-1.3.1-1.7.4.8.3 1.2 1 1.2 1.7v4.4c0 .4-.2.8-.6 1-.3.3-.6.5-1 .5-.6 0-1-.3-1.3-.8-1.3-2-2.4-3.8-3-5.6l-.3-.6H2.7v.7l.6 1.4A33 33 0 0 0 8 15.8c1.8 2 3.5 3.1 5.2 3.1h2.9l.1-.4v-.3L17 16l.3-.6c.2-.2.5-.3.7-.3.5 0 .9.3 1.3.8l2.3 2.7c.2.2.3.3.5.3h4.4c.5 0 .8-.1.8-.4l-.1-.2-3.9-4.6c-.3-.3-.4-.7-.4-1 0-.5.1-.9.4-1.3l1.3-1.6 1.8-2.2c.5-.7.8-1.3 1-1.9v-.6H23c-.3 0-.5.2-.6.4l-.2.5c-.4 1.1-1.6 3-3.5 5.3-.4.4-.8.6-1.3.6Z"></path></g></svg><svg id="sprite_16" fill="none" viewBox="0 0 29 22"><path fill="#666" d="M18.4 10.8 13 7.3a.7.7 0 0 0-1 .5v7a.7.7 0 0 0 1 .6l5.3-3.5a.7.7 0 0 0 0-1.1Zm-5 2.8V9.1l3.4 2.2-3.4 2.3ZM26 5a2.4 2.4 0 0 0-1.5-1.6C20.7 2 14.8 2 14.5 2c-.3 0-6.2 0-10 1.4A2.4 2.4 0 0 0 3.2 5c-.3 1.1-.6 3-.6 6.3s.3 5.3.6 6.3a2.4 2.4 0 0 0 1.5 1.7c3.7 1.4 9.6 1.4 9.9 1.4.8 0 6.4 0 10-1.4a2.4 2.4 0 0 0 1.4-1.7c.3-1 .6-3 .6-6.3 0-3.2-.3-5.2-.6-6.3Zm-1.3 12.3a1 1 0 0 1-.6.7c-3.5 1.4-9.4 1.4-9.5 1.4 0 0-6 0-9.5-1.4a1 1 0 0 1-.6-.7c-.3-1-.6-2.8-.6-6 0-3 .3-5 .6-6a1 1 0 0 1 .6-.7c3.5-1.3 9.4-1.3 9.5-1.3 0 0 6 0 9.5 1.3a1 1 0 0 1 .6.8c.3 1 .6 2.8.6 6 0 3-.3 4.9-.6 6Z"></path></svg><svg id="sprite_17" fill="none" viewBox="0 0 29 22"><path fill="#666" fill-rule="evenodd" d="m24 3.2.2.6-2.6 15.7a.7.7 0 0 1-1 .5l-8-5.3a.7.7 0 0 1 0-1l2.5-3.2-4.3 2.9H10l-5-2.6a.7.7 0 0 1 0-1.2L23.3 3c.2 0 .5 0 .7.2ZM6.8 10.3l3.6 1.8 7.5-5a.7.7 0 0 1 .9 1L14 14l6.4 4.2 2.3-13.6-15.9 5.6Z" clip-rule="evenodd"></path></svg><svg id="sprite_18" fill="none" viewBox="0 0 24 18"><path fill="#666" d="M8 0 0 9l8 9V0Zm16 9-8-9v18l8-9Z"></path></svg></svg><svg fill="none" id="telegram" viewBox="0 0 29 22"><path fill="#666" fill-rule="evenodd" d="m24 3.2.2.6-2.6 15.7a.7.7 0 0 1-1 .5l-8-5.3a.7.7 0 0 1 0-1l2.5-3.2-4.3 2.9H10l-5-2.6a.7.7 0 0 1 0-1.2L23.3 3c.2 0 .5 0 .7.2ZM6.8 10.3l3.6 1.8 7.5-5a.7.7 0 0 1 .9 1L14 14l6.4 4.2 2.3-13.6-15.9 5.6Z" clip-rule="evenodd"></path></svg><svg fill="none" id="time" viewBox="0 0 26 31"><path fill="#fff" d="M5.5 0c-1 0-1 1.6 0 1.6h6.7v1.6C5.4 3.6 0 9.4 0 16.5c0 4 1.7 7.6 4.5 10 .5.5.5 1.2.1 1.7l-1.5 1.5c-.8.7.3 1.8 1 1l2-2c.4-.3.9-.4 1.3-.2a12.7 12.7 0 0 0 11 0c.5-.2 1 0 1.4.3l2 2c.6.6 1.6-.4 1-1l-1.5-1.5c-.4-.5-.4-1.2.1-1.7A13.5 13.5 0 0 0 26 16.5c0-7.1-5.4-12.9-12.2-13.3V1.6h6.6c1 0 1-1.6 0-1.6H5.5Zm-4 16.5C1.4 9.9 6.5 4.7 13 4.7s11.6 5.2 11.6 11.8c0 6.5-5.2 11.8-11.6 11.8-6.4 0-11.6-5.3-11.6-11.8Zm10.7-8.1c0-1.1 1.7-1.1 1.7 0V17a.8.8 0 0 1-.9.9.8.8 0 0 1-.8-.8V8.4Zm-5 2.6a1.2 1.2 0 0 0 1.2-1.2 1.1 1.1 0 0 0-1.2-1.1 1.2 1.2 0 0 0-1 1.1 1.1 1.1 0 0 0 1 1.2Zm11.6 0a1.2 1.2 0 0 0 1.1-1.2 1.1 1.1 0 0 0-1.1-1.1 1.2 1.2 0 0 0-1 1.1 1.1 1.1 0 0 0 1 1.2ZM8.4 23.6C8.4 25 6 25 6 23.6s2.3-1.5 2.3 0ZM13 27a1.2 1.2 0 0 0 1.2-.7 1.1 1.1 0 0 0-.7-1.5 1.2 1.2 0 0 0-1.2.3 1.1 1.1 0 0 0 .7 2ZM5 16.6a1.1 1.1 0 0 1-.8 1.2 1.2 1.2 0 0 1-1.5-.7A1.1 1.1 0 0 1 3 16a1.2 1.2 0 0 1 2 .7Zm17.2 1.2a1.2 1.2 0 0 0 1.2-.7 1.1 1.1 0 0 0-.7-1.5 1.2 1.2 0 0 0-1.2.3 1.1 1.1 0 0 0 .7 1.9ZM20 23.6c0 1.5-2.3 1.5-2.3 0s2.3-1.5 2.3 0Z"></path></svg><svg fill="none" id="vk" viewBox="0 0 29 22"><g clip-path="url(#vk_0)"><path fill="#666" d="M1.5 5.3C1.5 4.5 2 4 3 4h4c.3 0 .5.1.5.4L9 7.6a39.7 39.7 0 0 0 2.4 3.4s.2 0 .2-.2l.1-.3V6.2c0-.3 0-.5-.2-.6l-.8-.2c-.3 0-.5-.3-.5-.6v-.1c.4-1.1 1.5-1.7 3.2-1.7h1.5c.7 0 1.3.2 1.7.5.4.3.7.8.7 1.5v5.7l.3.1c.3 0 .5-.1.7-.4A17.7 17.7 0 0 0 21.4 5l.6-.7.8-.4h4.6c.4 0 .7.2.8.5l.2.3a2.4 2.4 0 0 1 0 .6v.1c0 .7-.4 1.5-.9 2.2-.5.8-1.1 1.7-2 2.6a27.6 27.6 0 0 0-1.6 2.3c0 .1 0 .3.2.5l3.9 4.6c.2.3.3.5.3.9s-.2.7-.5 1a2 2 0 0 1-1.1.3H22l-.1.1c-.4 0-.8-.2-1.1-.5a241.3 241.3 0 0 1-3-3.3 38.5 38.5 0 0 0-.4 2.3l-.1.4c-.2.6-.6 1-1.1 1h-3c-1.5 0-3-.6-4.4-1.8-1.5-1.3-2.8-3-4-5a47.5 47.5 0 0 1-3.4-7.8Zm16 6.6c-.4 0-.7-.1-1-.3a.9.9 0 0 1-.5-.8V5c0-.3 0-.6-.2-.7-.2-.2-.5-.2-1-.2h-1.5c-.7 0-1.3.1-1.7.4.8.3 1.2 1 1.2 1.7v4.4c0 .4-.2.8-.6 1-.3.3-.6.5-1 .5-.6 0-1-.3-1.3-.8-1.3-2-2.4-3.8-3-5.6l-.3-.6H2.7v.7l.6 1.4A33 33 0 0 0 8 15.8c1.8 2 3.5 3.1 5.2 3.1h2.9l.1-.4v-.3L17 16l.3-.6c.2-.2.5-.3.7-.3.5 0 .9.3 1.3.8l2.3 2.7c.2.2.3.3.5.3h4.4c.5 0 .8-.1.8-.4l-.1-.2-3.9-4.6c-.3-.3-.4-.7-.4-1 0-.5.1-.9.4-1.3l1.3-1.6 1.8-2.2c.5-.7.8-1.3 1-1.9v-.6H23c-.3 0-.5.2-.6.4l-.2.5c-.4 1.1-1.6 3-3.5 5.3-.4.4-.8.6-1.3.6Z"></path></g><defs><clipPath id="vk_0"><path fill="#fff" d="M.5 0h28v22H.5z"></path></clipPath></defs></svg><svg fill="none" id="youtube" viewBox="0 0 29 22"><path fill="#666" d="M18.4 10.8 13 7.3a.7.7 0 0 0-1 .5v7a.7.7 0 0 0 1 .6l5.3-3.5a.7.7 0 0 0 0-1.1Zm-5 2.8V9.1l3.4 2.2-3.4 2.3ZM26 5a2.4 2.4 0 0 0-1.5-1.6C20.7 2 14.8 2 14.5 2c-.3 0-6.2 0-10 1.4A2.4 2.4 0 0 0 3.2 5c-.3 1.1-.6 3-.6 6.3s.3 5.3.6 6.3a2.4 2.4 0 0 0 1.5 1.7c3.7 1.4 9.6 1.4 9.9 1.4.8 0 6.4 0 10-1.4a2.4 2.4 0 0 0 1.4-1.7c.3-1 .6-3 .6-6.3 0-3.2-.3-5.2-.6-6.3Zm-1.3 12.3a1 1 0 0 1-.6.7c-3.5 1.4-9.4 1.4-9.5 1.4 0 0-6 0-9.5-1.4a1 1 0 0 1-.6-.7c-.3-1-.6-2.8-.6-6 0-3 .3-5 .6-6a1 1 0 0 1 .6-.7c3.5-1.3 9.4-1.3 9.5-1.3 0 0 6 0 9.5 1.3a1 1 0 0 1 .6.8c.3 1 .6 2.8.6 6 0 3-.3 4.9-.6 6Z"></path></svg></svg>