<svg xmlns="http://www.w3.org/2000/svg" width="67" height="50" fill="none" viewBox="0 0 67 50"><circle cx="34" cy="25" r="25" fill="#68B738"/><g clip-path="url(#a)"><path fill="#000" d="M61.6 13.9c.5-1 1.3-1.7 2.2-2.3.5-.4.8-.4 1.1.3.4 1 .8 2 .5 3a1.1 1.1 0 0 0 .2 1l.8 1.2a3.1 3.1 0 0 1 .4 3c-.2.6-.2 1.1 0 1.6v1.5a1.9 1.9 0 0 1-1.4 1.6c-.7.2-1.3.5-1.6 1a.5.5 0 0 1-.5.3c-.6 0-2-1.3-2-1.9V24c0-1.8-.1-2-1.8-2.7-.3 0-.6-.3-.9-.6-.3-.4-.7-.3-1.1-.2-.5.2-.7.5-.7 1 .2 1.2.2 2.4.2 3.6v.4c1.6 2.3 2.2 5 3 7.5.6 2 1.7 3 3.7 3.1l1 .2a2 2 0 0 1 1.6 1.6c.4 1 .2 1.3-.9 1.3h-3.2c-.5 0-.9-.1-1.2-.4-.5-.4-1-.8-1.7-1-.7-.3-1.3-.7-1.7-1.3-.6-.8-1.2-1.6-2-2.3-1.4-1.4-2.9-2.8-4.2-4.3-1-1-1.6-2.4-1.6-3.8 0-.5 0-.7-.6-.5a1 1 0 0 1-.5.2c-1.4 0-2 .8-2.6 2-.4 1.1-1 2.1-1.6 3.2-.3.6-.5 1.4-.5 2 0 1.3.3 1.7 1.4 2 .7.3 1.4.6 1.7 1.3.4.8.3 1-.5 1h-3.4a1 1 0 0 1-1-.5l-.9-1.5a3 3 0 0 1-.3-2.7 6 6 0 0 0 0-2.7 4.2 4.2 0 0 1 .9-3.5c.3-.3.3-.5-.2-.6a25 25 0 0 1-6-2c-1.6-.7-1.9-.6-2.3 1L32.3 29c-.4 1.6 0 3.1.5 4.6.2.6.8.6 1.3.7 1 .3 1.8.7 2.2 1.8.4.8.3.9-.5.9h-2.6c-.8 0-1.5-.3-2.1-.7-2.4-1.6-3.1-4-3.3-6.7-.1-1.7-1-3-2-4.2-.3-.3-.5-.4-.8-.2-1 .6-2.2 1.1-3.3 1.5-2.5.9-4.6 2.4-6.1 4.4-.6.8-1 1.6-1.1 2.6-.2.9 0 1.3 1 1.5.9.3 1.3.8 1.4 1.7 0 .4 0 .6-.5.6h-4a.8.8 0 0 1-.7-.4c-.6-.7-1-1.7-1-2.7 0-1.7.2-3.5.5-5.2a3.2 3.2 0 0 1 1.7-2.4c3-1.4 4.5-4 6-6.8.2-.5 0-.6-.5-.6-1.4.2-2.8.8-3.9 1.6-1.5 1.1-2.9 2.3-4.1 3.6A8.3 8.3 0 0 1 5.2 27C1.6 27.2 0 25.2 0 22c0-1.1.5-2.2 1.2-3a2.1 2.1 0 0 1 2.3-.8c.7.2 1 .6.6 1.3l-.5.9-.5 1c-.5 1.5.2 2.5 1.8 2.7 1.6.1 3-.6 4.2-1.6 1.5-1.2 2.9-2.6 4-4.1a10.4 10.4 0 0 1 7.2-4c1.2-.2 2.2-.7 3.3-1 2-.6 4.2-1 6.3-1 1 .1 2 0 3-.5 2.4-1 5-1 7.5-.5l6 1.4c1 .2 2.3.2 3.4 0 2.2-.6 4.4-1 6.7-1a9 9 0 0 1 4.3.8c1 .4 1 .4.8 1.4Z"/></g><defs><clipPath id="a"><path fill="#fff" d="M0 11h67v28H0z"/></clipPath></defs></svg>