<svg width="191" height="38" fill="none" xmlns="http://www.w3.org/2000/svg"><path d="M6.07 20.722v-2.26a143.25 143.25 0 0 1 20.17-1.33c0 .6 0 1.21-.06 1.82a25.518 25.518 0 0 1 6-1.82 16.67 16.67 0 0 0-31.99 3.26l5.88.33ZM27.24 24.232c-1.16 1.28-1.39 1.2-1.39 3.45v9.18a16.642 16.642 0 0 0 7.47-13.86 17.302 17.302 0 0 0-.32-3.1 33.108 33.108 0 0 0-5.76 4.33ZM6.36 25.722s-3.79-1.44-5.19-1.83a8.527 8.527 0 0 0-1.17-.28 16.65 16.65 0 0 0 8.68 14l-2.32-11.89Z" fill="#FDC305"/><path d="M26.29 17.122a89.8 89.8 0 0 0-1.4-16.47s-.14-1.29-.89-.24a14.22 14.22 0 0 0-1.2 3.94 70.34 70.34 0 0 0-12.77.34c-.79-2.69-2.18-3.94-2.85-3.69-.67.25-.72 3.31-.72 3.31l-.33 14.1a143.211 143.211 0 0 1 20.16-1.29Z" fill="#F06351"/><path d="M12.41 14.002c0-.09 1 .68 1.41.92.41.24.61.42.61.59 0 .17-.27.34-.63.34s-.91-.12-1-.27h1.23a8.342 8.342 0 0 1-1.62-1.58ZM19.89 14.112l-1.09 1.33c0 .06-.17.35.18.3a7.361 7.361 0 0 0 1.22-.29c.11 0 .07-.19-.11-.17-.18.02-.69.05-1 .11l.84-1.26s.07-.13-.04-.02ZM16.75 20.202a2.3 2.3 0 0 0 1.09-1c.28-.65 0-.91-.44-1a2.43 2.43 0 0 0-1.74.34c-.39.36-.34.72-.05 1 .351.266.734.487 1.14.66Z" fill="#000"/><path d="M16.35 21.452a1.921 1.921 0 0 1-.46.6 1.73 1.73 0 0 1-1 .38 2.15 2.15 0 0 1-1.47-.43 2.302 2.302 0 0 1-.53-.44c-.1-.111-.223-.2-.36-.26 0 0 .75 4.1 2.57 4.75 1.82.65 2.14-.75 2.2-1.13a5.61 5.61 0 0 0-.82-3.23c-.02-.31-.03-.11-.13-.24Z" fill="#F06351"/><path d="M14.71 22.592a3.44 3.44 0 0 1-2.33-1.42.14.14 0 0 1 .046-.231.138.138 0 0 1 .154.03 3.26 3.26 0 0 0 2.11 1.3 2.09 2.09 0 0 0 1.63-1l.14-.19.1.21s.37.76 1 .8c.63.04 1.05-.41 1.61-1.28a.138.138 0 0 1 .1-.041.138.138 0 0 1 .1.042.15.15 0 0 1 .05.2c-.64 1-1.27 1.44-1.88 1.4a1.551 1.551 0 0 1-1.12-.76 2.261 2.261 0 0 1-1.71.94Z" fill="#000"/><path d="M26.24 18.922a58.606 58.606 0 0 0-5.07 5.19 31.637 31.637 0 0 1-5.29 4.89c-.22-.53-1.62-1.51-1.62-1.51s-3.13-2.14-5.18-3.82a34.139 34.139 0 0 1-3.13-3l-2-.11a22.57 22.57 0 0 0 12 8.8c.86-.14 3.27-1.86 5.07-3.26a58.14 58.14 0 0 0 5.94-5.89 6.15 6.15 0 0 0 1.14-2c-1.1.39-1.86.71-1.86.71Z" fill="#F06351"/><path d="M91.264 29.54A6.864 6.864 0 0 1 90 25.232v-6.384a6.949 6.949 0 0 1 1.186-4.385c.869-1 2.212-1.461 4.188-1.461 1.976 0 3.24.461 4.03 1.307a5.418 5.418 0 0 1 1.186 3.77v1.538h-3.873v-1.77a3.691 3.691 0 0 0-.237-1.538 1.12 1.12 0 0 0-.456-.472 1.163 1.163 0 0 0-.65-.143c-.553 0-.948.154-1.106.538a4.846 4.846 0 0 0-.237 1.693v8.23a3.112 3.112 0 0 0 .316 1.616c.158.384.553.538 1.106.538s.87-.154 1.027-.538c.18-.52.26-1.068.237-1.616V24.31h3.873v1.539a5.776 5.776 0 0 1-1.186 3.846c-.79.923-2.133 1.385-4.03 1.385-1.897-.077-3.32-.539-4.11-1.539ZM105.253 13.232h4.504l3.32 17.539h-3.636l-.632-3.692h-2.608l-.632 3.692h-3.715l3.399-17.539Zm3.24 11.539-.948-6.846-.949 6.846h1.897ZM115.843 16.155h-2.687v-2.923h9.404v2.847h-2.687V30.77h-4.03V16.155ZM136.707 13.232v1.847h-4.505v5.769h3.635v1.769h-3.635v6.462h4.505v1.769h-7.034V13.232h7.034ZM138.761 13.232h1.739l5.137 11.616V13.232h2.055v17.539h-1.581l-5.216-12v12h-2.134V13.232ZM150.063 13.232h6.954v1.847h-4.504v5.769h3.635v1.769h-3.635v6.462h4.504v1.769h-6.954V13.232ZM162.707 13.232a6.453 6.453 0 0 1 4.031 1.077c.869.693 1.264 1.923 1.264 3.539 0 2.23-.711 3.615-2.212 4.077l2.528 8.769h-2.449l-2.371-8.23h-1.976v8.23h-2.529V13.232h3.714Zm-.158 7.539a3.523 3.523 0 0 0 2.292-.616c.474-.384.711-1.153.711-2.307a4.839 4.839 0 0 0-.237-1.692 1.975 1.975 0 0 0-.869-.924 3.692 3.692 0 0 0-1.739-.307h-1.106v5.769h.948v.077ZM171.164 29.463a7.608 7.608 0 0 1-1.107-4.461v-5.846a12.268 12.268 0 0 1 .395-3.308 3.92 3.92 0 0 1 1.502-2c.882-.509 1.9-.75 2.924-.693 1.66 0 2.845.385 3.556 1.231a5.773 5.773 0 0 1 1.107 3.846v.616h-2.371v-.539c.003-.644-.05-1.287-.158-1.923a1.533 1.533 0 0 0-.633-1 2.49 2.49 0 0 0-1.501-.384 2.417 2.417 0 0 0-1.581.461 1.734 1.734 0 0 0-.632 1.231 14.023 14.023 0 0 0-.158 2.077v6.538a6.816 6.816 0 0 0 .474 2.923c.316.616.949.847 1.897.847a1.96 1.96 0 0 0 1.092-.183c.337-.164.617-.422.805-.74a6.922 6.922 0 0 0 .553-3.077v-1.231h-2.292v-1.77h4.584v8.693h-1.581l-.237-2a3.143 3.143 0 0 1-1.226 1.658 3.287 3.287 0 0 1-2.014.573 4.049 4.049 0 0 1-1.899-.352 3.927 3.927 0 0 1-1.499-1.187ZM184.678 24.617l-3.873-11.308h2.371l2.766 8.462 2.687-8.462H191l-3.872 11.308v6.154h-2.371v-6.154h-.079Z" fill="#111"/></svg>