<svg xmlns="http://www.w3.org/2000/svg">
<style>:root svg:not(:target) {display: none }</style>
<svg id="arrow" fill="none" viewBox="0 0 24 12"><path stroke="#000" stroke-width="2" d="M0 6h18"/><path fill="#000" d="m24 6-6.8 5.2V.8L24 6Z"/></svg>
<svg id="cat-weight-mobile" fill="none" viewBox="0 0 50 53"><circle cx="25" cy="28" r="25" fill="#68B738"/><g clip-path="url(#a)"><path fill="#000" d="M35.2 0H35c-.3.2-.6.5-.7.8a8 8 0 0 0-.7 1.8.8.8 0 0 1-.8.7 3.8 3.8 0 0 0-2.7 2 14 14 0 0 0-1 2L27.3 13c-.3 1-.3 1-1.3 1-1.2 0-1-.3-1.1 1 0 .4.1.6.5.6l.4.1c0 .2 0 .3-.2.4-.6.6-1.4 1-2.2 1.2l-3 .8c-2.4.8-4.6 2-6.4 4-1 1.1-1.9 2.5-2.4 4A56.6 56.6 0 0 0 7.9 40a97 97 0 0 0-.7 6.7L7 50h17.1v-.7a2.6 2.6 0 0 0-2-1.5c-.4-.1-.4-.2-.2-.5l.8-1.6c.8-2.5 1.2-5 1.6-7.6.2-2 .8-3.9 1.7-5.6.8-1.3 1.7-2.4 2.9-3.3.4-.3.4-.3.5.2l.1 1.1c.2 2.5.1 5 0 7.3a31.9 31.9 0 0 0 1 12.2h6.8a2.8 2.8 0 0 0-2.1-2.3l-2 .1c-.3 0-.4 0-.4-.3-.2-2.7 0-5.5.5-8.2.7-3 1.2-6.2 1.6-9.3 0-1.3.5-2.5 1.1-3.7l1.8-3.3a3 3 0 0 0 .2-2.7l-.5-1-1.5-3c-.2-.6-.1-.6.4-.7.9 0 .9 0 .9-.8v-.3c0-.4-.2-.6-.5-.6H36c-.4 0-.5-.1-.4-.5a3.2 3.2 0 0 1 2.6-2.3c1.2 0 2.3 0 3.4.3a.5.5 0 0 0 .7-.4 40 40 0 0 1 .7-1.8l-.1-.3a18.3 18.3 0 0 0-6.2-5.5l-.1-.4-.7-2.1c-.1-.4-.4-.7-.7-.9Z"/></g><defs><clipPath id="a"><path fill="#fff" d="M7 0h36v50H7z"/></clipPath></defs></svg>
<svg id="cat-weight-tablet" fill="none" viewBox="0 0 200 211"><circle cx="100" cy="111" r="100" fill="#68B738"/><g clip-path="url(#a)"><path fill="#000" d="M139.7 0h-.8a7 7 0 0 0-2.9 3.2 31 31 0 0 0-2.6 6.8 3.3 3.3 0 0 1-3 2.7 14.7 14.7 0 0 0-10.4 7.5 54.6 54.6 0 0 0-3.7 8c-2.8 7.4-5 15-7.7 22.4-1.3 3.4-1.3 3.4-5.1 3.4-4.6 0-4.2-.7-4.3 4.3 0 1.6.5 2.4 2.2 2.3.5 0 1.3-.3 1.5.4.2.7-.5 1-1 1.4a18 18 0 0 1-8.6 4.9c-3.8 1-7.7 1.8-11.4 3a57.3 57.3 0 0 0-25 15.2 56 56 0 0 0-9.6 15.7A219.4 219.4 0 0 0 33.7 155c-1.3 8.6-2.2 17.3-3 26-.3 4.3-.7 8.6-.7 13h66.7c0-.9 0-1.8-.5-2.6a10 10 0 0 0-7.7-6.1c-1.4-.3-1.5-.7-.7-1.8 1.4-2 2.5-4 3.2-6.2 3.3-9.7 4.5-19.7 6.1-29.6A60 60 0 0 1 104 126c2.8-5 6.6-9.3 11.2-12.7 1.6-1.3 1.7-1.3 2 .8l.3 4.4c.6 9.4.5 18.9-.3 28.3a123.3 123.3 0 0 0 4.2 47.2H148a10.8 10.8 0 0 0-8.5-8.9 18 18 0 0 0-7.5.4c-1.2.3-1.7 0-1.8-1.3-.8-10.6-.2-21.2 2-31.6 2.7-12 4.7-24.2 6.1-36.4.5-5 2.1-9.7 4.6-14 2.4-4.2 4.4-8.6 6.8-12.9a11.7 11.7 0 0 0 .8-10.4c-.5-1.4-1-2.8-1.7-4.2-2-3.9-4-7.7-5.8-11.7-1-2-.8-2.2 1.4-2.3 3.2 0 3.2 0 3.3-3.3v-1.3c0-1.4-.5-2.1-2-2h-3c-1.4 0-1.8-.6-1.5-2a12.5 12.5 0 0 1 10.3-8.8 44 44 0 0 1 13.2.8 2 2 0 0 0 2.5-1.3l2.6-6a2 2 0 0 0-.2-2.2 71.1 71.1 0 0 0-24-21.5 3 3 0 0 1-.6-1.3c-.5-2.9-1.3-5.7-2.5-8.4a7 7 0 0 0-2.8-3.4Z"/></g><defs><clipPath id="a"><path fill="#fff" d="M30 0h140v194H30z"/></clipPath></defs></svg>
<svg id="cat-weight-desktop" fill="none" viewBox="0 0 100 106"><circle cx="50" cy="56" r="50" fill="#68B738"/><g clip-path="url(#a)"><path fill="#000" d="M69.8 0h-.3c-.7.4-1.2 1-1.5 1.6-.6 1-1 2.2-1.3 3.4a1.6 1.6 0 0 1-1.5 1.3 7.3 7.3 0 0 0-5.2 3.8l-1.9 4c-1.4 3.7-2.5 7.5-3.8 11.2-.6 1.7-.7 1.7-2.6 1.7-2.2 0-2-.4-2.1 2.1 0 .8.2 1.2 1 1.2.3 0 .7-.1.8.2.1.4-.2.5-.4.7a9 9 0 0 1-4.3 2.4L41 35.2a28.6 28.6 0 0 0-12.6 7.5 28 28 0 0 0-4.7 7.9c-3.7 8.6-5.5 17.7-6.9 27-.6 4.2-1 8.6-1.4 13-.2 2-.4 4.2-.4 6.4h33.3c0-.4 0-.9-.2-1.3a5 5 0 0 0-3.8-3c-.7-.2-.8-.4-.4-1 .7-1 1.3-2 1.6-3 1.6-4.9 2.3-9.9 3-14.9A30 30 0 0 1 52 63c1.4-2.5 3.3-4.6 5.6-6.4.8-.6.9-.6 1 .5l.2 2.1c.3 4.8.2 9.5-.2 14.2A61.7 61.7 0 0 0 60.7 97H74a5.4 5.4 0 0 0-4.2-4.4 9 9 0 0 0-3.8.2c-.6.1-.8 0-.9-.7-.4-5.3 0-10.6 1-15.8 1.3-6 2.4-12 3-18.2.3-2.5 1.1-4.8 2.3-7l3.4-6.4a5.9 5.9 0 0 0 .5-5.2l-.9-2.1-3-5.9c-.4-1-.3-1.1.8-1.1 1.6 0 1.6 0 1.6-1.7v-.6c0-.7-.2-1.1-1-1h-1.5c-.7 0-.9-.3-.7-1a6.2 6.2 0 0 1 5.1-4.5 22 22 0 0 1 6.7.5 1 1 0 0 0 1.2-.7 77.4 77.4 0 0 1 1.4-3.6A35.6 35.6 0 0 0 72.8 6.5l-.3-.6c-.2-1.4-.7-2.8-1.3-4.2C71 1 70.5.4 69.8 0Z"/></g><defs><clipPath id="a"><path fill="#fff" d="M15 0h70v97H15z"/></clipPath></defs></svg>
<svg id="cat-mass-mobile" fill="none" viewBox="0 0 67 50"><circle cx="34" cy="25" r="25" fill="#68B738"/><g clip-path="url(#a)"><path fill="#000" d="M61.6 13.9c.5-1 1.3-1.7 2.2-2.3.5-.4.8-.4 1.1.3.4 1 .8 2 .5 3a1.1 1.1 0 0 0 .2 1l.8 1.2a3.1 3.1 0 0 1 .4 3c-.2.6-.2 1.1 0 1.6v1.5a1.9 1.9 0 0 1-1.4 1.6c-.7.2-1.3.5-1.6 1a.5.5 0 0 1-.5.3c-.6 0-2-1.3-2-1.9V24c0-1.8-.1-2-1.8-2.7-.3 0-.6-.3-.9-.6-.3-.4-.7-.3-1.1-.2-.5.2-.7.5-.7 1 .2 1.2.2 2.4.2 3.6v.4c1.6 2.3 2.2 5 3 7.5.6 2 1.7 3 3.7 3.1l1 .2a2 2 0 0 1 1.6 1.6c.4 1 .2 1.3-.9 1.3h-3.2c-.5 0-.9-.1-1.2-.4-.5-.4-1-.8-1.7-1-.7-.3-1.3-.7-1.7-1.3-.6-.8-1.2-1.6-2-2.3-1.4-1.4-2.9-2.8-4.2-4.3-1-1-1.6-2.4-1.6-3.8 0-.5 0-.7-.6-.5a1 1 0 0 1-.5.2c-1.4 0-2 .8-2.6 2-.4 1.1-1 2.1-1.6 3.2-.3.6-.5 1.4-.5 2 0 1.3.3 1.7 1.4 2 .7.3 1.4.6 1.7 1.3.4.8.3 1-.5 1h-3.4a1 1 0 0 1-1-.5l-.9-1.5a3 3 0 0 1-.3-2.7 6 6 0 0 0 0-2.7 4.2 4.2 0 0 1 .9-3.5c.3-.3.3-.5-.2-.6a25 25 0 0 1-6-2c-1.6-.7-1.9-.6-2.3 1L32.3 29c-.4 1.6 0 3.1.5 4.6.2.6.8.6 1.3.7 1 .3 1.8.7 2.2 1.8.4.8.3.9-.5.9h-2.6c-.8 0-1.5-.3-2.1-.7-2.4-1.6-3.1-4-3.3-6.7-.1-1.7-1-3-2-4.2-.3-.3-.5-.4-.8-.2-1 .6-2.2 1.1-3.3 1.5-2.5.9-4.6 2.4-6.1 4.4-.6.8-1 1.6-1.1 2.6-.2.9 0 1.3 1 1.5.9.3 1.3.8 1.4 1.7 0 .4 0 .6-.5.6h-4a.8.8 0 0 1-.7-.4c-.6-.7-1-1.7-1-2.7 0-1.7.2-3.5.5-5.2a3.2 3.2 0 0 1 1.7-2.4c3-1.4 4.5-4 6-6.8.2-.5 0-.6-.5-.6-1.4.2-2.8.8-3.9 1.6-1.5 1.1-2.9 2.3-4.1 3.6A8.3 8.3 0 0 1 5.2 27C1.6 27.2 0 25.2 0 22c0-1.1.5-2.2 1.2-3a2.1 2.1 0 0 1 2.3-.8c.7.2 1 .6.6 1.3l-.5.9-.5 1c-.5 1.5.2 2.5 1.8 2.7 1.6.1 3-.6 4.2-1.6 1.5-1.2 2.9-2.6 4-4.1a10.4 10.4 0 0 1 7.2-4c1.2-.2 2.2-.7 3.3-1 2-.6 4.2-1 6.3-1 1 .1 2 0 3-.5 2.4-1 5-1 7.5-.5l6 1.4c1 .2 2.3.2 3.4 0 2.2-.6 4.4-1 6.7-1a9 9 0 0 1 4.3.8c1 .4 1 .4.8 1.4Z"/></g><defs><clipPath id="a"><path fill="#fff" d="M0 11h67v28H0z"/></clipPath></defs></svg>
<svg id="cat-mass-tablet" fill="none" viewBox="0 0 268 200"><circle cx="134" cy="100" r="100" fill="#68B738"/><g clip-path="url(#a)"><path fill="#000" d="M246.2 55.5c2.3-3.7 5.4-6.8 9-9.2 2-1.4 3.2-1.4 4.4 1.2 1.6 3.8 3 7.8 1.8 12a4.6 4.6 0 0 0 .8 4.2l3.2 4.6a12.5 12.5 0 0 1 1.8 12.4c-.7 2-.8 4.2-.4 6.2s.4 4 0 6a7.5 7.5 0 0 1-5.4 6.4c-2.5.5-4.8 2-6.4 4a2 2 0 0 1-1.8 1c-2.4.4-8.4-5-8.4-7.4v-1.2c.2-7.2-.2-7.8-6.8-10.8a8.8 8.8 0 0 1-3.6-2.4c-1.2-1.6-2.8-1.4-4.6-.8-1.8.6-2.8 1.8-2.6 3.8.6 4.9.8 9.7.6 14.6 0 .6.2 1.1.4 1.6 6.2 9 8.6 19.6 11.6 29.8 2.4 7.8 6.8 12 14.8 12.6 1.3.1 2.6.3 3.8.6a8.3 8.3 0 0 1 6.8 6.4c1.4 4.2.6 5.2-3.6 5.2h-13c-1.6.1-3.3-.5-4.6-1.6-2-1.7-4.3-3-6.8-4-2.7-1-5-2.8-6.8-5.2-2.3-3.3-5-6.3-8-9-5.6-5.8-11.6-11.4-16.8-17.4-4-4-6.2-9.5-6.4-15.2 0-1.8-.4-2.6-2.4-1.8-.6.4-1.3.6-2 .6-5.6 0-8.4 3.4-10.4 8.4-1.8 4.2-4.2 8.2-6.4 12.4-1.2 2.6-1.9 5.5-2 8.4 0 4.8 1.2 6.4 5.6 8 2.8 1 5.4 2 6.8 4.8 1.6 3.2 1.2 4-2.2 4.2h-13.6a3.8 3.8 0 0 1-3.8-2.2l-3.6-6a12.1 12.1 0 0 1-1.4-10.8c.9-3.5 1-7 .2-10.6a16.8 16.8 0 0 1 3.4-14c1.2-1.4 1.2-2-.8-2.4a100.2 100.2 0 0 1-23.8-8.4c-6.4-2.4-7.6-2-9.4 4.6-1.6 5.6-3.2 11.2-4.4 17a34 34 0 0 0 2.2 18.4c.8 2.4 3.2 2.2 5 2.8 4 1.2 7.4 2.8 9 7 1.4 3.2 1.2 3.6-2.2 3.6-3.4 0-6.8-.2-10.4 0-3 0-6-1-8.4-2.8-9.6-6.4-12.4-16.2-13.2-26.8-.4-6.6-4-11.8-8.2-16.8-.8-1-1.6-1.4-2.8-.6a88.6 88.6 0 0 1-13.4 6 53.4 53.4 0 0 0-24.4 17.6c-2.3 3-3.8 6.5-4.4 10.2-.6 3.6.4 5.2 4 6.2s5.4 3 5.8 6.8c.2 1.6-.4 2.4-2 2.4H49.4a3.3 3.3 0 0 1-2.6-1.6c-2.5-3.1-3.8-7-3.8-11 0-6.9.5-13.8 1.8-20.6a12.6 12.6 0 0 1 6.8-9.6c11.8-5.6 18-16.2 23.6-27.2 1.2-2.2.2-2.6-1.8-2.4A33 33 0 0 0 58 84.1c-5.9 4.3-11.4 9-16.6 14.2-5.5 5.6-12.8 9-20.6 9.8C6.2 109-.6 100.7 0 87.5.2 83 2 78.7 4.8 75.3a8.5 8.5 0 0 1 9-3c3 .8 3.8 2.4 2.6 5.4l-2 3.4a15 15 0 0 0-2 4c-2.2 6 .8 10.2 7 10.8 6.6.6 12-2.2 17-6.2 6-4.8 11.4-10.4 16-16.6A41.6 41.6 0 0 1 81.2 57c4.6-.6 8.6-2.6 13-3.8a83 83 0 0 1 25.4-3.6c4 .2 8-.6 11.6-2.2 9.8-4 20-4 30.2-2 8 1.6 16 3.6 23.8 5.6 4.7.9 9.5.7 14-.4 8.8-2.2 17.8-3.6 26.8-4 6-.3 11.9.9 17.2 3.4 4 1.8 4 1.8 3 5.6Z"/></g><defs><clipPath id="a"><path fill="#fff" d="M0 44h268v112H0z"/></clipPath></defs></svg>
<svg id="cat-mass-desktop" fill="none" viewBox="0 0 134 100"><circle cx="69" cy="50" r="50" fill="#68B738"/><g clip-path="url(#a)"><path fill="#000" d="M123.1 25.8c1.2-1.9 2.7-3.4 4.5-4.6 1-.7 1.6-.7 2.2.6.8 1.9 1.5 3.9 1 6a2.3 2.3 0 0 0 .3 2l1.6 2.4a6.3 6.3 0 0 1 1 6.2c-.4 1-.5 2-.3 3s.2 2 0 3a3.8 3.8 0 0 1-2.7 3.3c-1.3.2-2.4 1-3.2 2a1 1 0 0 1-.9.5c-1.2.2-4.2-2.5-4.2-3.7v-.6c.1-3.6 0-4-3.4-5.4-.7-.3-1.3-.7-1.8-1.2-.6-.8-1.4-.7-2.3-.4-.9.3-1.4.9-1.3 1.9.3 2.4.4 4.8.3 7.3 0 .2 0 .5.2.8 3.1 4.5 4.3 9.8 5.8 14.9 1.2 3.9 3.4 6 7.4 6.3.7 0 1.3.1 2 .3a4.2 4.2 0 0 1 3.3 3.2c.7 2 .3 2.6-1.8 2.6h-6.5c-.8 0-1.6-.3-2.3-.8-1-.9-2.1-1.6-3.4-2a7.3 7.3 0 0 1-3.4-2.6 28.6 28.6 0 0 0-4-4.5c-2.8-3-5.8-5.7-8.4-8.7-2-2-3.1-4.8-3.2-7.6 0-1-.2-1.3-1.2-1a2 2 0 0 1-1 .4c-2.8 0-4.2 1.7-5.2 4.2-.9 2-2 4-3.2 6.2-.6 1.3-1 2.7-1 4.2 0 2.4.6 3.2 2.8 4 1.4.5 2.7 1 3.4 2.4.8 1.6.6 2-1 2h-6.9a1.9 1.9 0 0 1-1.9-1l-1.8-3A6 6 0 0 1 82 63c.5-1.8.5-3.6.1-5.3a8.4 8.4 0 0 1 1.7-7c.6-.7.6-1-.4-1.2a50 50 0 0 1-11.9-4.2c-3.2-1.2-3.8-1-4.7 2.3-.8 2.8-1.6 5.6-2.2 8.5a17 17 0 0 0 1.1 9.2c.4 1.2 1.6 1 2.5 1.4 2 .6 3.7 1.4 4.5 3.5.7 1.6.6 1.8-1 1.8h-5.3c-1.5 0-3-.5-4.2-1.4-4.8-3.2-6.2-8.1-6.6-13.4-.2-3.3-2-6-4-8.4-.5-.5-.9-.7-1.5-.3a44.3 44.3 0 0 1-6.7 3c-4.8 1.7-9 4.7-12.2 8.8-1.2 1.4-2 3.2-2.2 5-.3 1.9.2 2.7 2 3.2s2.7 1.5 3 3.4c0 .8-.3 1.2-1 1.2h-8.2a1.6 1.6 0 0 1-1.3-.8 8.6 8.6 0 0 1-1.9-5.5c0-3.5.3-7 1-10.3a6.3 6.3 0 0 1 3.3-4.8c6-2.8 9-8.1 11.8-13.6.6-1.1.1-1.3-.9-1.2-2.8.3-5.4 1.4-7.7 3.2-3 2.1-5.7 4.5-8.3 7a16.7 16.7 0 0 1-10.3 5C3.1 52.5-.3 48.4 0 41.8c0-2.3 1-4.5 2.4-6.1A4.2 4.2 0 0 1 7 34.2c1.5.4 2 1.2 1.3 2.7l-1 1.7c-.4.6-.8 1.2-1 2-1 3 .4 5 3.5 5.4 3.3.3 6-1.1 8.5-3.1a45 45 0 0 0 8-8.3 20.8 20.8 0 0 1 14.4-8.1c2.3-.3 4.3-1.3 6.5-2 4.1-1.2 8.4-1.8 12.7-1.7 2 0 4-.3 5.8-1.1 5-2 10-2 15.1-1 4 .8 8 1.8 12 2.8 2.2.4 4.6.3 7-.2 4.3-1.2 8.8-1.8 13.3-2 3-.2 6 .4 8.6 1.7 2 .9 2 .9 1.5 2.8Z"/></g><defs><clipPath id="a"><path fill="#fff" d="M0 20h134v56H0z"/></clipPath></defs></svg>
<svg id="sheet" fill="none" viewBox="0 0 31 32"><g clip-path="url(#a)"><path fill="#fff" d="M28.3 2.8a1 1 0 0 0-.9-.8c-5 0-17 1-21.8 8.4-2.5 3.9-2.7 8.9-.6 15-.7 2-1 3.4-1 3.4 0 .5.2 1 .7 1.2H5a1 1 0 0 0 1-.8s2.4-10.4 10.8-16.4c.4-.3.6-.9.3-1.4a.9.9 0 0 0-1.3-.2 30 30 0 0 0-9.5 11.6c-1.3-4.6-1-8.4 1-11.3 3.7-5.7 12.6-7.1 18-7.4A20 20 0 0 0 22.7 15c0 3.1-.8 5.5-2.4 7.1-2.6 2.6-6.9 2.9-10 2.6-.5 0-1 .4-1 1 0 .5.3 1 .8 1l2 .1c3.2 0 6.9-.7 9.5-3.2 2-2 3-4.9 3-8.6 0-9.1 3.2-11.1 3.3-11.1.3-.2.5-.7.4-1.1Z"/></g><defs><clipPath id="a"><path fill="#fff" d="M.5 0h30v32H.5z"/></clipPath></defs></svg>
<svg id="powder" fill="none" viewBox="0 0 26 29"><path fill="#fff" d="M10.9 0c-1.7 0-3 1.4-3 3 0 1.8 1.3 3.2 3 3.2 1.6 0 2.9-1.4 2.9-3.1 0-1.7-1.3-3.1-3-3.1Zm0 1.2c1 0 1.7.8 1.7 1.9 0 1-.8 1.9-1.7 1.9-1 0-1.7-.9-1.7-2 0-1 .7-1.8 1.7-1.8ZM0 24.7c0 1.2.4 2.2 1.4 3 1 .9 2.1.8 2.1.8h19c.8 0 1.9-.4 2.7-1.4.8-1 .8-2.4.8-2.4V7.5c0-.4-.1-.6-.8-.6-.6 0-.6.3-.6.6v17.2c0 .3-.1 1-.8 1.7-.7.6-1.4.6-1.4.6h-19c-.4-.1-1-.3-1.5-1s-.4-1.6-.4-1.6V7.2c0-.5-.3-.7-.8-.7-.4 0-.7.2-.7.6v17.6ZM16.3 8.4c-1 .3-2.2.4-4.2 2.4-2.1 2-3.7 1.9-5.2 1.8-1.6 0-3.2-1.5-3.5-2-.3-.3-.9 0-1 .2-.2.2-.2.7 0 1a7 7 0 0 0 4.8 2.3c2.2.2 4.4-.8 5.9-2.3 1.4-1.4 2.1-1.7 3.2-1.9 2.7-.4 4.2.6 5.1 1.3 1 1 1.3.8 1.5.4.6-.7-.2-1.2-1-1.9a7.2 7.2 0 0 0-5.6-1.2Zm-9 7.2c-1.2 0-2.1 1-2.1 2.3 0 1.2.9 2.2 2 2.2 1.2 0 2.1-1 2.1-2.2 0-1.3-.9-2.3-2-2.3Zm11.7.8c-1.5 0-2.8 1.3-2.8 3 0 1.6 1.3 3 2.8 3 1.6 0 2.8-1.4 2.8-3 0-1.7-1.2-3-2.8-3Zm0 1.4c.8 0 1.5.7 1.5 1.6 0 .8-.7 1.5-1.5 1.5s-1.4-.7-1.4-1.5c0-.9.6-1.6 1.4-1.6Z"/></svg>
<svg id="food" fill="none" viewBox="0 0 25 30"><path fill="#fff" fill-rule="evenodd" d="M18.6 0c.4 0 .8 0 1.1.3 1 .9 2.1 2.9 3 6 1 3 1.8 7.2 1.8 12.7 0 .6-.4 1-1 1H20v9a1 1 0 1 1-2 0V1c0-.4.2-.8.6-1ZM20 18h2.5A39.6 39.6 0 0 0 20 4.5V18ZM6 0c.6 0 1 .4 1 1v28a1 1 0 1 1-2 0V1c0-.6.4-1 1-1Z" clip-rule="evenodd"/><path fill="#fff" fill-rule="evenodd" d="M1.5 0c.6 0 1 .4 1 1v5.5c0 .6.2 1.3.7 2 .5.5 1.3 1 2.8 1a1 1 0 1 1 0 2c-2 0-3.4-.7-4.3-1.8A5 5 0 0 1 .5 6.5V1c0-.6.4-1 1-1Z" clip-rule="evenodd"/><path fill="#fff" fill-rule="evenodd" d="M10.5 0a1 1 0 0 0-1 1v5.5a3 3 0 0 1-.7 2c-.5.5-1.3 1-2.8 1a1 1 0 0 0 0 2c2 0 3.4-.7 4.3-1.8a5 5 0 0 0 1.2-3.2V1c0-.6-.4-1-1-1Z" clip-rule="evenodd"/></svg>
<svg id="time" fill="none" viewBox="0 0 26 31"><path fill="#fff" d="M5.5 0c-1 0-1 1.6 0 1.6h6.7v1.6C5.4 3.6 0 9.4 0 16.5c0 4 1.7 7.6 4.5 10 .5.5.5 1.2.1 1.7l-1.5 1.5c-.8.7.3 1.8 1 1l2-2c.4-.3.9-.4 1.3-.2a12.7 12.7 0 0 0 11 0c.5-.2 1 0 1.4.3l2 2c.6.6 1.6-.4 1-1l-1.5-1.5c-.4-.5-.4-1.2.1-1.7A13.5 13.5 0 0 0 26 16.5c0-7.1-5.4-12.9-12.2-13.3V1.6h6.6c1 0 1-1.6 0-1.6H5.5Zm-4 16.5C1.4 9.9 6.5 4.7 13 4.7s11.6 5.2 11.6 11.8c0 6.5-5.2 11.8-11.6 11.8-6.4 0-11.6-5.3-11.6-11.8Zm10.7-8.1c0-1.1 1.7-1.1 1.7 0V17a.8.8 0 0 1-.9.9.8.8 0 0 1-.8-.8V8.4Zm-5 2.6a1.2 1.2 0 0 0 1.2-1.2 1.1 1.1 0 0 0-1.2-1.1 1.2 1.2 0 0 0-1 1.1 1.1 1.1 0 0 0 1 1.2Zm11.6 0a1.2 1.2 0 0 0 1.1-1.2 1.1 1.1 0 0 0-1.1-1.1 1.2 1.2 0 0 0-1 1.1 1.1 1.1 0 0 0 1 1.2ZM8.4 23.6C8.4 25 6 25 6 23.6s2.3-1.5 2.3 0ZM13 27a1.2 1.2 0 0 0 1.2-.7 1.1 1.1 0 0 0-.7-1.5 1.2 1.2 0 0 0-1.2.3 1.1 1.1 0 0 0 .7 2ZM5 16.6a1.1 1.1 0 0 1-.8 1.2 1.2 1.2 0 0 1-1.5-.7A1.1 1.1 0 0 1 3 16a1.2 1.2 0 0 1 2 .7Zm17.2 1.2a1.2 1.2 0 0 0 1.2-.7 1.1 1.1 0 0 0-.7-1.5 1.2 1.2 0 0 0-1.2.3 1.1 1.1 0 0 0 .7 1.9ZM20 23.6c0 1.5-2.3 1.5-2.3 0s2.3-1.5 2.3 0Z"/></svg>
</svg>
