<svg xmlns="http://www.w3.org/2000/svg" width="29" height="22" fill="none" viewBox="0 0 29 22"><path fill="#666" d="M18.4 10.8 13 7.3a.7.7 0 0 0-1 .5v7a.7.7 0 0 0 1 .6l5.3-3.5a.7.7 0 0 0 0-1.1Zm-5 2.8V9.1l3.4 2.2-3.4 2.3ZM26 5a2.4 2.4 0 0 0-1.5-1.6C20.7 2 14.8 2 14.5 2c-.3 0-6.2 0-10 1.4A2.4 2.4 0 0 0 3.2 5c-.3 1.1-.6 3-.6 6.3s.3 5.3.6 6.3a2.4 2.4 0 0 0 1.5 1.7c3.7 1.4 9.6 1.4 9.9 1.4.8 0 6.4 0 10-1.4a2.4 2.4 0 0 0 1.4-1.7c.3-1 .6-3 .6-6.3 0-3.2-.3-5.2-.6-6.3Zm-1.3 12.3a1 1 0 0 1-.6.7c-3.5 1.4-9.4 1.4-9.5 1.4 0 0-6 0-9.5-1.4a1 1 0 0 1-.6-.7c-.3-1-.6-2.8-.6-6 0-3 .3-5 .6-6a1 1 0 0 1 .6-.7c3.5-1.3 9.4-1.3 9.5-1.3 0 0 6 0 9.5 1.3a1 1 0 0 1 .6.8c.3 1 .6 2.8.6 6 0 3-.3 4.9-.6 6Z"/></svg>